<svg width="1473" height="695" viewBox="0 0 1473 695" fill="none" xmlns="http://www.w3.org/2000/svg">
<path d="M887 137.5H1213V585.5H887V137.5Z" fill="url(#paint0_linear_43_6495)" stroke="#AFAFAF" stroke-width="2"/>
<path d="M1213 137.5C1213 137.5 1286.5 114.773 1340.5 105.5C1394.5 96.2272 1469 104 1469 104V552C1469 552 1393.5 545.5 1340.5 552C1287.5 558.5 1213 585.5 1213 585.5V137.5Z" fill="white" stroke="#AFAFAF" stroke-width="2"/>
<path d="M1213 137.551C1213 137.551 1282.74 109.117 1325.5 99.0514C1368.26 88.9853 1448 71 1448 71V519.448C1448 519.448 1368.26 537.434 1325.5 547.5C1282.74 557.566 1213 586 1213 586V137.551Z" fill="url(#paint1_linear_43_6495)" stroke="#AFAFAF" stroke-width="2"/>
<rect x="132" y="185" width="535" height="347" rx="21" fill="white" stroke="#C6C6C6" stroke-width="2"/>
<mask id="mask0_43_6495" style="mask-type:alpha" maskUnits="userSpaceOnUse" x="131" y="184" width="537" height="349">
<rect x="131" y="184" width="537" height="349" rx="22" fill="#D9D9D9"/>
</mask>
<g mask="url(#mask0_43_6495)">
<rect x="131" y="184" width="537" height="34" fill="#C6C6C6"/>
</g>
<rect x="157" y="225" width="489" height="297" stroke="#001AFF" stroke-width="4" stroke-dasharray="12 12"/>
<rect x="914" y="190" width="271" height="343" stroke="#001AFF" stroke-width="4" stroke-dasharray="12 12"/>
<mask id="mask1_43_6495" style="mask-type:alpha" maskUnits="userSpaceOnUse" x="176" y="244" width="452" height="261">
<rect x="176" y="244" width="289.483" height="73.3146" rx="8" fill="#2BB2FF"/>
<rect x="176" y="337.843" width="126.966" height="73.3146" rx="8" fill="#2BB2FF"/>
<rect x="176" y="431.685" width="452" height="73.3146" rx="8" fill="#2BB2FF"/>
<rect x="338.517" y="337.843" width="126.966" height="73.3146" rx="8" fill="#2BB2FF"/>
<rect x="501.034" y="244" width="126.966" height="167.157" rx="8" fill="#2BB2FF"/>
</mask>
<g mask="url(#mask1_43_6495)">
<rect x="176" y="244" width="452" height="261" fill="url(#paint2_linear_43_6495)"/>
</g>
<mask id="mask2_43_6495" style="mask-type:alpha" maskUnits="userSpaceOnUse" x="927" y="207" width="245" height="309">
<rect x="927" y="207" width="156.91" height="86.7978" rx="8" fill="#2BB2FF"/>
<rect x="927" y="318.101" width="68.8202" height="86.7978" rx="8" fill="#2BB2FF"/>
<rect x="927" y="429.202" width="245" height="86.7978" rx="8" fill="#2BB2FF"/>
<rect x="1015.09" y="318.101" width="68.8202" height="86.7978" rx="8" fill="#2BB2FF"/>
<rect x="1103.18" y="207" width="68.8202" height="197.899" rx="8" fill="#2BB2FF"/>
</mask>
<g mask="url(#mask2_43_6495)">
<rect x="927" y="207" width="245" height="309" fill="url(#paint3_linear_43_6495)"/>
</g>
<path d="M17.1077 392V387.16H24.6277V368.44H24.2677L18.5877 375.88L14.7477 372.88L21.4277 364.08H30.6277V387.16H36.5477V392H17.1077ZM49.332 392.48C45.6787 392.48 42.972 391.213 41.212 388.68C39.452 386.147 38.572 382.6 38.572 378.04C38.572 373.48 39.452 369.933 41.212 367.4C42.972 364.867 45.6787 363.6 49.332 363.6C52.9854 363.6 55.692 364.867 57.452 367.4C59.212 369.933 60.092 373.48 60.092 378.04C60.092 382.6 59.212 386.147 57.452 388.68C55.692 391.213 52.9854 392.48 49.332 392.48ZM49.332 387.4C50.932 387.4 52.0387 386.813 52.652 385.64C53.2654 384.467 53.572 382.813 53.572 380.68V375.4C53.572 373.267 53.2654 371.613 52.652 370.44C52.0387 369.267 50.932 368.68 49.332 368.68C47.732 368.68 46.6254 369.267 46.012 370.44C45.3987 371.613 45.092 373.267 45.092 375.4V380.68C45.092 382.813 45.3987 384.467 46.012 385.64C46.6254 386.813 47.732 387.4 49.332 387.4ZM73.3164 392.48C69.6631 392.48 66.9564 391.213 65.1964 388.68C63.4364 386.147 62.5564 382.6 62.5564 378.04C62.5564 373.48 63.4364 369.933 65.1964 367.4C66.9564 364.867 69.6631 363.6 73.3164 363.6C76.9697 363.6 79.6764 364.867 81.4364 367.4C83.1964 369.933 84.0764 373.48 84.0764 378.04C84.0764 382.6 83.1964 386.147 81.4364 388.68C79.6764 391.213 76.9697 392.48 73.3164 392.48ZM73.3164 387.4C74.9164 387.4 76.0231 386.813 76.6364 385.64C77.2497 384.467 77.5564 382.813 77.5564 380.68V375.4C77.5564 373.267 77.2497 371.613 76.6364 370.44C76.0231 369.267 74.9164 368.68 73.3164 368.68C71.7164 368.68 70.6097 369.267 69.9964 370.44C69.3831 371.613 69.0764 373.267 69.0764 375.4V380.68C69.0764 382.813 69.3831 384.467 69.9964 385.64C70.6097 386.813 71.7164 387.4 73.3164 387.4ZM92.5408 392L85.6608 371H91.5008L94.1008 379.48L96.0608 387.08H96.3808L98.3408 379.48L100.861 371H106.461L99.5808 392H92.5408ZM109.584 362.4H115.504V374.56H115.744C116.118 373.467 116.771 372.52 117.704 371.72C118.638 370.92 119.931 370.52 121.584 370.52C123.744 370.52 125.371 371.24 126.464 372.68C127.584 374.12 128.144 376.173 128.144 378.84V392H122.224V379.32C122.224 377.96 122.011 376.96 121.584 376.32C121.158 375.653 120.398 375.32 119.304 375.32C118.824 375.32 118.358 375.387 117.904 375.52C117.451 375.627 117.038 375.813 116.664 376.08C116.318 376.347 116.038 376.68 115.824 377.08C115.611 377.453 115.504 377.893 115.504 378.4V392H109.584V362.4Z" fill="#001AFF"/>
<path d="M772.108 369V364.16H779.628V345.44H779.268L773.588 352.88L769.748 349.88L776.428 341.08H785.628V364.16H791.548V369H772.108ZM804.332 369.48C800.679 369.48 797.972 368.213 796.212 365.68C794.452 363.147 793.572 359.6 793.572 355.04C793.572 350.48 794.452 346.933 796.212 344.4C797.972 341.867 800.679 340.6 804.332 340.6C807.985 340.6 810.692 341.867 812.452 344.4C814.212 346.933 815.092 350.48 815.092 355.04C815.092 359.6 814.212 363.147 812.452 365.68C810.692 368.213 807.985 369.48 804.332 369.48ZM804.332 364.4C805.932 364.4 807.039 363.813 807.652 362.64C808.265 361.467 808.572 359.813 808.572 357.68V352.4C808.572 350.267 808.265 348.613 807.652 347.44C807.039 346.267 805.932 345.68 804.332 345.68C802.732 345.68 801.625 346.267 801.012 347.44C800.399 348.613 800.092 350.267 800.092 352.4V357.68C800.092 359.813 800.399 361.467 801.012 362.64C801.625 363.813 802.732 364.4 804.332 364.4ZM828.316 369.48C824.663 369.48 821.956 368.213 820.196 365.68C818.436 363.147 817.556 359.6 817.556 355.04C817.556 350.48 818.436 346.933 820.196 344.4C821.956 341.867 824.663 340.6 828.316 340.6C831.97 340.6 834.676 341.867 836.436 344.4C838.196 346.933 839.076 350.48 839.076 355.04C839.076 359.6 838.196 363.147 836.436 365.68C834.676 368.213 831.97 369.48 828.316 369.48ZM828.316 364.4C829.916 364.4 831.023 363.813 831.636 362.64C832.25 361.467 832.556 359.813 832.556 357.68V352.4C832.556 350.267 832.25 348.613 831.636 347.44C831.023 346.267 829.916 345.68 828.316 345.68C826.716 345.68 825.61 346.267 824.996 347.44C824.383 348.613 824.076 350.267 824.076 352.4V357.68C824.076 359.813 824.383 361.467 824.996 362.64C825.61 363.813 826.716 364.4 828.316 364.4ZM847.541 369L840.661 348H846.501L849.101 356.48L851.061 364.08H851.381L853.341 356.48L855.861 348H861.461L854.581 369H847.541ZM864.584 339.4H870.504V351.56H870.744C871.118 350.467 871.771 349.52 872.704 348.72C873.638 347.92 874.931 347.52 876.584 347.52C878.744 347.52 880.371 348.24 881.464 349.68C882.584 351.12 883.144 353.173 883.144 355.84V369H877.224V356.32C877.224 354.96 877.011 353.96 876.584 353.32C876.158 352.653 875.398 352.32 874.304 352.32C873.824 352.32 873.358 352.387 872.904 352.52C872.451 352.627 872.038 352.813 871.664 353.08C871.318 353.347 871.038 353.68 870.824 354.08C870.611 354.453 870.504 354.893 870.504 355.4V369H864.584V339.4Z" fill="#001AFF"/>
<path d="M339.205 574V569.16H346.725V550.44H346.365L340.685 557.88L336.845 554.88L343.525 546.08H352.725V569.16H358.645V574H339.205ZM371.43 574.48C367.776 574.48 365.07 573.213 363.31 570.68C361.55 568.147 360.67 564.6 360.67 560.04C360.67 555.48 361.55 551.933 363.31 549.4C365.07 546.867 367.776 545.6 371.43 545.6C375.083 545.6 377.79 546.867 379.55 549.4C381.31 551.933 382.19 555.48 382.19 560.04C382.19 564.6 381.31 568.147 379.55 570.68C377.79 573.213 375.083 574.48 371.43 574.48ZM371.43 569.4C373.03 569.4 374.136 568.813 374.75 567.64C375.363 566.467 375.67 564.813 375.67 562.68V557.4C375.67 555.267 375.363 553.613 374.75 552.44C374.136 551.267 373.03 550.68 371.43 550.68C369.83 550.68 368.723 551.267 368.11 552.44C367.496 553.613 367.19 555.267 367.19 557.4V562.68C367.19 564.813 367.496 566.467 368.11 567.64C368.723 568.813 369.83 569.4 371.43 569.4ZM395.414 574.48C391.761 574.48 389.054 573.213 387.294 570.68C385.534 568.147 384.654 564.6 384.654 560.04C384.654 555.48 385.534 551.933 387.294 549.4C389.054 546.867 391.761 545.6 395.414 545.6C399.067 545.6 401.774 546.867 403.534 549.4C405.294 551.933 406.174 555.48 406.174 560.04C406.174 564.6 405.294 568.147 403.534 570.68C401.774 573.213 399.067 574.48 395.414 574.48ZM395.414 569.4C397.014 569.4 398.121 568.813 398.734 567.64C399.347 566.467 399.654 564.813 399.654 562.68V557.4C399.654 555.267 399.347 553.613 398.734 552.44C398.121 551.267 397.014 550.68 395.414 550.68C393.814 550.68 392.707 551.267 392.094 552.44C391.481 553.613 391.174 555.267 391.174 557.4V562.68C391.174 564.813 391.481 566.467 392.094 567.64C392.707 568.813 393.814 569.4 395.414 569.4ZM414.638 574L407.758 553H413.598L416.198 561.48L418.158 569.08H418.478L420.438 561.48L422.958 553H428.558L421.678 574H414.638ZM429.682 553H435.402L437.442 561.48L438.882 567.88H439.042L440.722 561.48L443.122 553H448.522L450.962 561.48L452.682 567.88H452.842L454.282 561.48L456.322 553H461.802L456.002 574H449.802L447.242 565.12L445.762 559.68H445.642L444.202 565.12L441.642 574H435.562L429.682 553Z" fill="#001AFF"/>
<path d="M990.205 585V580.16H997.725V561.44H997.365L991.685 568.88L987.845 565.88L994.525 557.08H1003.73V580.16H1009.65V585H990.205ZM1022.43 585.48C1018.78 585.48 1016.07 584.213 1014.31 581.68C1012.55 579.147 1011.67 575.6 1011.67 571.04C1011.67 566.48 1012.55 562.933 1014.31 560.4C1016.07 557.867 1018.78 556.6 1022.43 556.6C1026.08 556.6 1028.79 557.867 1030.55 560.4C1032.31 562.933 1033.19 566.48 1033.19 571.04C1033.19 575.6 1032.31 579.147 1030.55 581.68C1028.79 584.213 1026.08 585.48 1022.43 585.48ZM1022.43 580.4C1024.03 580.4 1025.14 579.813 1025.75 578.64C1026.36 577.467 1026.67 575.813 1026.67 573.68V568.4C1026.67 566.267 1026.36 564.613 1025.75 563.44C1025.14 562.267 1024.03 561.68 1022.43 561.68C1020.83 561.68 1019.72 562.267 1019.11 563.44C1018.5 564.613 1018.19 566.267 1018.19 568.4V573.68C1018.19 575.813 1018.5 577.467 1019.11 578.64C1019.72 579.813 1020.83 580.4 1022.43 580.4ZM1046.41 585.48C1042.76 585.48 1040.05 584.213 1038.29 581.68C1036.53 579.147 1035.65 575.6 1035.65 571.04C1035.65 566.48 1036.53 562.933 1038.29 560.4C1040.05 557.867 1042.76 556.6 1046.41 556.6C1050.07 556.6 1052.77 557.867 1054.53 560.4C1056.29 562.933 1057.17 566.48 1057.17 571.04C1057.17 575.6 1056.29 579.147 1054.53 581.68C1052.77 584.213 1050.07 585.48 1046.41 585.48ZM1046.41 580.4C1048.01 580.4 1049.12 579.813 1049.73 578.64C1050.35 577.467 1050.65 575.813 1050.65 573.68V568.4C1050.65 566.267 1050.35 564.613 1049.73 563.44C1049.12 562.267 1048.01 561.68 1046.41 561.68C1044.81 561.68 1043.71 562.267 1043.09 563.44C1042.48 564.613 1042.17 566.267 1042.17 568.4V573.68C1042.17 575.813 1042.48 577.467 1043.09 578.64C1043.71 579.813 1044.81 580.4 1046.41 580.4ZM1065.64 585L1058.76 564H1064.6L1067.2 572.48L1069.16 580.08H1069.48L1071.44 572.48L1073.96 564H1079.56L1072.68 585H1065.64ZM1080.68 564H1086.4L1088.44 572.48L1089.88 578.88H1090.04L1091.72 572.48L1094.12 564H1099.52L1101.96 572.48L1103.68 578.88H1103.84L1105.28 572.48L1107.32 564H1112.8L1107 585H1100.8L1098.24 576.12L1096.76 570.68H1096.64L1095.2 576.12L1092.64 585H1086.56L1080.68 564Z" fill="#001AFF"/>
<defs>
<linearGradient id="paint0_linear_43_6495" x1="889.5" y1="360" x2="1213" y2="362" gradientUnits="userSpaceOnUse">
<stop offset="0.587773" stop-color="white"/>
<stop offset="1" stop-color="#F2F2F2"/>
</linearGradient>
<linearGradient id="paint1_linear_43_6495" x1="1448" y1="378" x2="1213" y2="378" gradientUnits="userSpaceOnUse">
<stop offset="0.113717" stop-color="white"/>
<stop offset="1" stop-color="#DADADA"/>
</linearGradient>
<linearGradient id="paint2_linear_43_6495" x1="176" y1="244" x2="402.049" y2="635.472" gradientUnits="userSpaceOnUse">
<stop stop-color="#31E8C7"/>
<stop offset="1" stop-color="#F1DE34"/>
</linearGradient>
<linearGradient id="paint3_linear_43_6495" x1="927" y1="207" x2="1227.86" y2="445.547" gradientUnits="userSpaceOnUse">
<stop stop-color="#31E8C7"/>
<stop offset="1" stop-color="#F1DE34"/>
</linearGradient>
</defs>
</svg>
