<svg width="1670" height="695" viewBox="0 0 1670 695" fill="none" xmlns="http://www.w3.org/2000/svg">
<path d="M937 135.5H1263V583.5H937V135.5Z" fill="url(#paint0_linear_43_6495)" stroke="#AFAFAF" stroke-width="2"/>
<path d="M1263 135.5C1263 135.5 1336.5 112.773 1390.5 103.5C1444.5 94.2272 1519 102 1519 102V550C1519 550 1443.5 543.5 1390.5 550C1337.5 556.5 1263 583.5 1263 583.5V135.5Z" fill="white" stroke="#AFAFAF" stroke-width="2"/>
<path d="M1263 135.551C1263 135.551 1332.74 107.117 1375.5 97.0514C1418.26 86.9853 1498 69 1498 69V517.448C1498 517.448 1418.26 535.434 1375.5 545.5C1332.74 555.566 1263 584 1263 584V135.551Z" fill="url(#paint1_linear_43_6495)" stroke="#AFAFAF" stroke-width="2"/>
<rect x="182" y="183" width="535" height="347" rx="21" fill="white" stroke="#C6C6C6" stroke-width="2"/>
<mask id="mask0_43_6495" style="mask-type:alpha" maskUnits="userSpaceOnUse" x="181" y="182" width="537" height="349">
<rect x="181" y="182" width="537" height="349" rx="22" fill="#D9D9D9"/>
</mask>
<g mask="url(#mask0_43_6495)">
<rect x="181" y="182" width="537" height="34" fill="#C6C6C6"/>
</g>
<rect x="207" y="223" width="489" height="297" stroke="#001AFF" stroke-width="4" stroke-dasharray="12 12"/>
<rect x="964" y="188" width="271" height="343" stroke="#001AFF" stroke-width="4" stroke-dasharray="12 12"/>
<mask id="mask1_43_6495" style="mask-type:alpha" maskUnits="userSpaceOnUse" x="226" y="242" width="452" height="261">
<rect x="226" y="242" width="289.483" height="73.3146" rx="8" fill="#2BB2FF"/>
<rect x="226" y="335.843" width="126.966" height="73.3146" rx="8" fill="#2BB2FF"/>
<rect x="226" y="429.685" width="452" height="73.3146" rx="8" fill="#2BB2FF"/>
<rect x="388.517" y="335.843" width="126.966" height="73.3146" rx="8" fill="#2BB2FF"/>
<rect x="551.034" y="242" width="126.966" height="167.157" rx="8" fill="#2BB2FF"/>
</mask>
<g mask="url(#mask1_43_6495)">
<rect x="226" y="242" width="452" height="261" fill="url(#paint2_linear_43_6495)"/>
</g>
<mask id="mask2_43_6495" style="mask-type:alpha" maskUnits="userSpaceOnUse" x="977" y="205" width="245" height="309">
<rect x="977" y="205" width="156.91" height="86.7978" rx="8" fill="#2BB2FF"/>
<rect x="977" y="316.101" width="68.8202" height="86.7978" rx="8" fill="#2BB2FF"/>
<rect x="977" y="427.202" width="245" height="86.7978" rx="8" fill="#2BB2FF"/>
<rect x="1065.09" y="316.101" width="68.8202" height="86.7978" rx="8" fill="#2BB2FF"/>
<rect x="1153.18" y="205" width="68.8202" height="197.899" rx="8" fill="#2BB2FF"/>
</mask>
<g mask="url(#mask2_43_6495)">
<rect x="977" y="205" width="245" height="309" fill="url(#paint3_linear_43_6495)"/>
</g>
<path d="M67.1077 390V385.16H74.6277V366.44H74.2677L68.5877 373.88L64.7477 370.88L71.4277 362.08H80.6277V385.16H86.5477V390H67.1077ZM99.332 390.48C95.6787 390.48 92.972 389.213 91.212 386.68C89.452 384.147 88.572 380.6 88.572 376.04C88.572 371.48 89.452 367.933 91.212 365.4C92.972 362.867 95.6787 361.6 99.332 361.6C102.985 361.6 105.692 362.867 107.452 365.4C109.212 367.933 110.092 371.48 110.092 376.04C110.092 380.6 109.212 384.147 107.452 386.68C105.692 389.213 102.985 390.48 99.332 390.48ZM99.332 385.4C100.932 385.4 102.039 384.813 102.652 383.64C103.265 382.467 103.572 380.813 103.572 378.68V373.4C103.572 371.267 103.265 369.613 102.652 368.44C102.039 367.267 100.932 366.68 99.332 366.68C97.732 366.68 96.6254 367.267 96.012 368.44C95.3987 369.613 95.092 371.267 95.092 373.4V378.68C95.092 380.813 95.3987 382.467 96.012 383.64C96.6254 384.813 97.732 385.4 99.332 385.4ZM123.316 390.48C119.663 390.48 116.956 389.213 115.196 386.68C113.436 384.147 112.556 380.6 112.556 376.04C112.556 371.48 113.436 367.933 115.196 365.4C116.956 362.867 119.663 361.6 123.316 361.6C126.97 361.6 129.676 362.867 131.436 365.4C133.196 367.933 134.076 371.48 134.076 376.04C134.076 380.6 133.196 384.147 131.436 386.68C129.676 389.213 126.97 390.48 123.316 390.48ZM123.316 385.4C124.916 385.4 126.023 384.813 126.636 383.64C127.25 382.467 127.556 380.813 127.556 378.68V373.4C127.556 371.267 127.25 369.613 126.636 368.44C126.023 367.267 124.916 366.68 123.316 366.68C121.716 366.68 120.61 367.267 119.996 368.44C119.383 369.613 119.076 371.267 119.076 373.4V378.68C119.076 380.813 119.383 382.467 119.996 383.64C120.61 384.813 121.716 385.4 123.316 385.4ZM142.541 390L135.661 369H141.501L144.101 377.48L146.061 385.08H146.381L148.341 377.48L150.861 369H156.461L149.581 390H142.541ZM159.584 360.4H165.504V372.56H165.744C166.118 371.467 166.771 370.52 167.704 369.72C168.638 368.92 169.931 368.52 171.584 368.52C173.744 368.52 175.371 369.24 176.464 370.68C177.584 372.12 178.144 374.173 178.144 376.84V390H172.224V377.32C172.224 375.96 172.011 374.96 171.584 374.32C171.158 373.653 170.398 373.32 169.304 373.32C168.824 373.32 168.358 373.387 167.904 373.52C167.451 373.627 167.038 373.813 166.664 374.08C166.318 374.347 166.038 374.68 165.824 375.08C165.611 375.453 165.504 375.893 165.504 376.4V390H159.584V360.4Z" fill="#001AFF"/>
<path d="M822.108 367V362.16H829.628V343.44H829.268L823.588 350.88L819.748 347.88L826.428 339.08H835.628V362.16H841.548V367H822.108ZM854.332 367.48C850.679 367.48 847.972 366.213 846.212 363.68C844.452 361.147 843.572 357.6 843.572 353.04C843.572 348.48 844.452 344.933 846.212 342.4C847.972 339.867 850.679 338.6 854.332 338.6C857.985 338.6 860.692 339.867 862.452 342.4C864.212 344.933 865.092 348.48 865.092 353.04C865.092 357.6 864.212 361.147 862.452 363.68C860.692 366.213 857.985 367.48 854.332 367.48ZM854.332 362.4C855.932 362.4 857.039 361.813 857.652 360.64C858.265 359.467 858.572 357.813 858.572 355.68V350.4C858.572 348.267 858.265 346.613 857.652 345.44C857.039 344.267 855.932 343.68 854.332 343.68C852.732 343.68 851.625 344.267 851.012 345.44C850.399 346.613 850.092 348.267 850.092 350.4V355.68C850.092 357.813 850.399 359.467 851.012 360.64C851.625 361.813 852.732 362.4 854.332 362.4ZM878.316 367.48C874.663 367.48 871.956 366.213 870.196 363.68C868.436 361.147 867.556 357.6 867.556 353.04C867.556 348.48 868.436 344.933 870.196 342.4C871.956 339.867 874.663 338.6 878.316 338.6C881.97 338.6 884.676 339.867 886.436 342.4C888.196 344.933 889.076 348.48 889.076 353.04C889.076 357.6 888.196 361.147 886.436 363.68C884.676 366.213 881.97 367.48 878.316 367.48ZM878.316 362.4C879.916 362.4 881.023 361.813 881.636 360.64C882.25 359.467 882.556 357.813 882.556 355.68V350.4C882.556 348.267 882.25 346.613 881.636 345.44C881.023 344.267 879.916 343.68 878.316 343.68C876.716 343.68 875.61 344.267 874.996 345.44C874.383 346.613 874.076 348.267 874.076 350.4V355.68C874.076 357.813 874.383 359.467 874.996 360.64C875.61 361.813 876.716 362.4 878.316 362.4ZM897.541 367L890.661 346H896.501L899.101 354.48L901.061 362.08H901.381L903.341 354.48L905.861 346H911.461L904.581 367H897.541ZM914.584 337.4H920.504V349.56H920.744C921.118 348.467 921.771 347.52 922.704 346.72C923.638 345.92 924.931 345.52 926.584 345.52C928.744 345.52 930.371 346.24 931.464 347.68C932.584 349.12 933.144 351.173 933.144 353.84V367H927.224V354.32C927.224 352.96 927.011 351.96 926.584 351.32C926.158 350.653 925.398 350.32 924.304 350.32C923.824 350.32 923.358 350.387 922.904 350.52C922.451 350.627 922.038 350.813 921.664 351.08C921.318 351.347 921.038 351.68 920.824 352.08C920.611 352.453 920.504 352.893 920.504 353.4V367H914.584V337.4Z" fill="#001AFF"/>
<path d="M389.205 572V567.16H396.725V548.44H396.365L390.685 555.88L386.845 552.88L393.525 544.08H402.725V567.16H408.645V572H389.205ZM421.43 572.48C417.776 572.48 415.07 571.213 413.31 568.68C411.55 566.147 410.67 562.6 410.67 558.04C410.67 553.48 411.55 549.933 413.31 547.4C415.07 544.867 417.776 543.6 421.43 543.6C425.083 543.6 427.79 544.867 429.55 547.4C431.31 549.933 432.19 553.48 432.19 558.04C432.19 562.6 431.31 566.147 429.55 568.68C427.79 571.213 425.083 572.48 421.43 572.48ZM421.43 567.4C423.03 567.4 424.136 566.813 424.75 565.64C425.363 564.467 425.67 562.813 425.67 560.68V555.4C425.67 553.267 425.363 551.613 424.75 550.44C424.136 549.267 423.03 548.68 421.43 548.68C419.83 548.68 418.723 549.267 418.11 550.44C417.496 551.613 417.19 553.267 417.19 555.4V560.68C417.19 562.813 417.496 564.467 418.11 565.64C418.723 566.813 419.83 567.4 421.43 567.4ZM445.414 572.48C441.761 572.48 439.054 571.213 437.294 568.68C435.534 566.147 434.654 562.6 434.654 558.04C434.654 553.48 435.534 549.933 437.294 547.4C439.054 544.867 441.761 543.6 445.414 543.6C449.067 543.6 451.774 544.867 453.534 547.4C455.294 549.933 456.174 553.48 456.174 558.04C456.174 562.6 455.294 566.147 453.534 568.68C451.774 571.213 449.067 572.48 445.414 572.48ZM445.414 567.4C447.014 567.4 448.121 566.813 448.734 565.64C449.347 564.467 449.654 562.813 449.654 560.68V555.4C449.654 553.267 449.347 551.613 448.734 550.44C448.121 549.267 447.014 548.68 445.414 548.68C443.814 548.68 442.707 549.267 442.094 550.44C441.481 551.613 441.174 553.267 441.174 555.4V560.68C441.174 562.813 441.481 564.467 442.094 565.64C442.707 566.813 443.814 567.4 445.414 567.4ZM464.638 572L457.758 551H463.598L466.198 559.48L468.158 567.08H468.478L470.438 559.48L472.958 551H478.558L471.678 572H464.638ZM479.682 551H485.402L487.442 559.48L488.882 565.88H489.042L490.722 559.48L493.122 551H498.522L500.962 559.48L502.682 565.88H502.842L504.282 559.48L506.322 551H511.802L506.002 572H499.802L497.242 563.12L495.762 557.68H495.642L494.202 563.12L491.642 572H485.562L479.682 551Z" fill="#001AFF"/>
<path d="M1040.21 583V578.16H1047.73V559.44H1047.37L1041.69 566.88L1037.85 563.88L1044.53 555.08H1053.73V578.16H1059.65V583H1040.21ZM1072.43 583.48C1068.78 583.48 1066.07 582.213 1064.31 579.68C1062.55 577.147 1061.67 573.6 1061.67 569.04C1061.67 564.48 1062.55 560.933 1064.31 558.4C1066.07 555.867 1068.78 554.6 1072.43 554.6C1076.08 554.6 1078.79 555.867 1080.55 558.4C1082.31 560.933 1083.19 564.48 1083.19 569.04C1083.19 573.6 1082.31 577.147 1080.55 579.68C1078.79 582.213 1076.08 583.48 1072.43 583.48ZM1072.43 578.4C1074.03 578.4 1075.14 577.813 1075.75 576.64C1076.36 575.467 1076.67 573.813 1076.67 571.68V566.4C1076.67 564.267 1076.36 562.613 1075.75 561.44C1075.14 560.267 1074.03 559.68 1072.43 559.68C1070.83 559.68 1069.72 560.267 1069.11 561.44C1068.5 562.613 1068.19 564.267 1068.19 566.4V571.68C1068.19 573.813 1068.5 575.467 1069.11 576.64C1069.72 577.813 1070.83 578.4 1072.43 578.4ZM1096.41 583.48C1092.76 583.48 1090.05 582.213 1088.29 579.68C1086.53 577.147 1085.65 573.6 1085.65 569.04C1085.65 564.48 1086.53 560.933 1088.29 558.4C1090.05 555.867 1092.76 554.6 1096.41 554.6C1100.07 554.6 1102.77 555.867 1104.53 558.4C1106.29 560.933 1107.17 564.48 1107.17 569.04C1107.17 573.6 1106.29 577.147 1104.53 579.68C1102.77 582.213 1100.07 583.48 1096.41 583.48ZM1096.41 578.4C1098.01 578.4 1099.12 577.813 1099.73 576.64C1100.35 575.467 1100.65 573.813 1100.65 571.68V566.4C1100.65 564.267 1100.35 562.613 1099.73 561.44C1099.12 560.267 1098.01 559.68 1096.41 559.68C1094.81 559.68 1093.71 560.267 1093.09 561.44C1092.48 562.613 1092.17 564.267 1092.17 566.4V571.68C1092.17 573.813 1092.48 575.467 1093.09 576.64C1093.71 577.813 1094.81 578.4 1096.41 578.4ZM1115.64 583L1108.76 562H1114.6L1117.2 570.48L1119.16 578.08H1119.48L1121.44 570.48L1123.96 562H1129.56L1122.68 583H1115.64ZM1130.68 562H1136.4L1138.44 570.48L1139.88 576.88H1140.04L1141.72 570.48L1144.12 562H1149.52L1151.96 570.48L1153.68 576.88H1153.84L1155.28 570.48L1157.32 562H1162.8L1157 583H1150.8L1148.24 574.12L1146.76 568.68H1146.64L1145.2 574.12L1142.64 583H1136.56L1130.68 562Z" fill="#001AFF"/>
<defs>
<linearGradient id="paint0_linear_43_6495" x1="939.5" y1="358" x2="1263" y2="360" gradientUnits="userSpaceOnUse">
<stop offset="0.587773" stop-color="white"/>
<stop offset="1" stop-color="#F2F2F2"/>
</linearGradient>
<linearGradient id="paint1_linear_43_6495" x1="1498" y1="376" x2="1263" y2="376" gradientUnits="userSpaceOnUse">
<stop offset="0.113717" stop-color="white"/>
<stop offset="1" stop-color="#DADADA"/>
</linearGradient>
<linearGradient id="paint2_linear_43_6495" x1="226" y1="242" x2="452.049" y2="633.472" gradientUnits="userSpaceOnUse">
<stop stop-color="#31E8C7"/>
<stop offset="1" stop-color="#F1DE34"/>
</linearGradient>
<linearGradient id="paint3_linear_43_6495" x1="977" y1="205" x2="1277.86" y2="443.547" gradientUnits="userSpaceOnUse">
<stop stop-color="#31E8C7"/>
<stop offset="1" stop-color="#F1DE34"/>
</linearGradient>
</defs>
</svg>
