<svg width="511" height="689" viewBox="0 0 511 689" fill="none" xmlns="http://www.w3.org/2000/svg">
<rect width="511" height="689" fill="white"/>
<path d="M3 3H508V686H3V3Z" stroke="black" stroke-width="6"/>
<line x1="37" y1="60" x2="124" y2="60" stroke="#C9C9C9" stroke-width="12"/>
<line x1="37" y1="85" x2="124" y2="85" stroke="#C9C9C9" stroke-width="12"/>
<line x1="37" y1="110" x2="124" y2="110" stroke="#C9C9C9" stroke-width="12"/>
<line x1="37" y1="135" x2="124" y2="135" stroke="#C9C9C9" stroke-width="12"/>
<line x1="37" y1="160" x2="124" y2="160" stroke="#C9C9C9" stroke-width="12"/>
<line x1="37" y1="185" x2="124" y2="185" stroke="#C9C9C9" stroke-width="12"/>
<line x1="37" y1="210" x2="124" y2="210" stroke="#C9C9C9" stroke-width="12"/>
<line x1="37" y1="235" x2="124" y2="235" stroke="#C9C9C9" stroke-width="12"/>
<line x1="37" y1="260" x2="124" y2="260" stroke="#C9C9C9" stroke-width="12"/>
<line x1="37" y1="285" x2="124" y2="285" stroke="#C9C9C9" stroke-width="12"/>
<line x1="37" y1="310" x2="124" y2="310" stroke="#C9C9C9" stroke-width="12"/>
<line x1="37" y1="335" x2="124" y2="335" stroke="#C9C9C9" stroke-width="12"/>
<line x1="37" y1="360" x2="124" y2="360" stroke="#C9C9C9" stroke-width="12"/>
<line x1="37" y1="385" x2="124" y2="385" stroke="#C9C9C9" stroke-width="12"/>
<line x1="37" y1="410" x2="124" y2="410" stroke="#C9C9C9" stroke-width="12"/>
<line x1="37" y1="435" x2="124" y2="435" stroke="#C9C9C9" stroke-width="12"/>
<line x1="37" y1="460" x2="124" y2="460" stroke="#C9C9C9" stroke-width="12"/>
<line x1="37" y1="485" x2="124" y2="485" stroke="#C9C9C9" stroke-width="12"/>
<line x1="37" y1="510" x2="124" y2="510" stroke="#C9C9C9" stroke-width="12"/>
<line x1="37" y1="535" x2="124" y2="535" stroke="#C9C9C9" stroke-width="12"/>
<line x1="37" y1="560" x2="124" y2="560" stroke="#C9C9C9" stroke-width="12"/>
<line x1="37" y1="585" x2="124" y2="585" stroke="#C9C9C9" stroke-width="12"/>
<line x1="37" y1="610" x2="124" y2="610" stroke="#C9C9C9" stroke-width="12"/>
<line x1="37" y1="635" x2="124" y2="635" stroke="#C9C9C9" stroke-width="12"/>
<line x1="150" y1="60" x2="237" y2="60" stroke="#C9C9C9" stroke-width="12"/>
<line x1="150" y1="85" x2="237" y2="85" stroke="#C9C9C9" stroke-width="12"/>
<line x1="150" y1="110" x2="237" y2="110" stroke="#C9C9C9" stroke-width="12"/>
<line x1="150" y1="135" x2="237" y2="135" stroke="#C9C9C9" stroke-width="12"/>
<line x1="150" y1="160" x2="237" y2="160" stroke="#C9C9C9" stroke-width="12"/>
<line x1="150" y1="185" x2="237" y2="185" stroke="#C9C9C9" stroke-width="12"/>
<line x1="150" y1="210" x2="237" y2="210" stroke="#C9C9C9" stroke-width="12"/>
<line x1="150" y1="235" x2="237" y2="235" stroke="#C9C9C9" stroke-width="12"/>
<line x1="150" y1="260" x2="237" y2="260" stroke="#C9C9C9" stroke-width="12"/>
<line x1="150" y1="285" x2="237" y2="285" stroke="#C9C9C9" stroke-width="12"/>
<line x1="150" y1="310" x2="237" y2="310" stroke="#C9C9C9" stroke-width="12"/>
<line x1="150" y1="335" x2="237" y2="335" stroke="#C9C9C9" stroke-width="12"/>
<line x1="150" y1="360" x2="237" y2="360" stroke="#C9C9C9" stroke-width="12"/>
<line x1="150" y1="385" x2="237" y2="385" stroke="#C9C9C9" stroke-width="12"/>
<line x1="150" y1="410" x2="237" y2="410" stroke="#C9C9C9" stroke-width="12"/>
<line x1="150" y1="435" x2="237" y2="435" stroke="#C9C9C9" stroke-width="12"/>
<line x1="150" y1="460" x2="237" y2="460" stroke="#C9C9C9" stroke-width="12"/>
<line x1="150" y1="485" x2="237" y2="485" stroke="#C9C9C9" stroke-width="12"/>
<line x1="150" y1="510" x2="237" y2="510" stroke="#C9C9C9" stroke-width="12"/>
<line x1="150" y1="535" x2="237" y2="535" stroke="#C9C9C9" stroke-width="12"/>
<line x1="150" y1="560" x2="237" y2="560" stroke="#C9C9C9" stroke-width="12"/>
<line x1="150" y1="585" x2="237" y2="585" stroke="#C9C9C9" stroke-width="12"/>
<line x1="150" y1="610" x2="237" y2="610" stroke="#C9C9C9" stroke-width="12"/>
<line x1="150" y1="635" x2="237" y2="635" stroke="#C9C9C9" stroke-width="12"/>
<line x1="263" y1="60" x2="350" y2="60" stroke="#C9C9C9" stroke-width="12"/>
<line x1="263" y1="85" x2="350" y2="85" stroke="#C9C9C9" stroke-width="12"/>
<line x1="263" y1="110" x2="350" y2="110" stroke="#C9C9C9" stroke-width="12"/>
<line x1="263" y1="135" x2="350" y2="135" stroke="#C9C9C9" stroke-width="12"/>
<line x1="263" y1="160" x2="350" y2="160" stroke="#C9C9C9" stroke-width="12"/>
<line x1="263" y1="185" x2="350" y2="185" stroke="#C9C9C9" stroke-width="12"/>
<line x1="263" y1="210" x2="350" y2="210" stroke="#C9C9C9" stroke-width="12"/>
<line x1="263" y1="235" x2="350" y2="235" stroke="#C9C9C9" stroke-width="12"/>
<line x1="263" y1="260" x2="350" y2="260" stroke="#C9C9C9" stroke-width="12"/>
<line x1="263" y1="285" x2="350" y2="285" stroke="#C9C9C9" stroke-width="12"/>
<line x1="263" y1="310" x2="350" y2="310" stroke="#C9C9C9" stroke-width="12"/>
<line x1="263" y1="335" x2="350" y2="335" stroke="#C9C9C9" stroke-width="12"/>
<line x1="263" y1="360" x2="350" y2="360" stroke="#C9C9C9" stroke-width="12"/>
<line x1="263" y1="385" x2="350" y2="385" stroke="#C9C9C9" stroke-width="12"/>
<line x1="263" y1="410" x2="350" y2="410" stroke="#C9C9C9" stroke-width="12"/>
<line x1="263" y1="435" x2="350" y2="435" stroke="#C9C9C9" stroke-width="12"/>
<line x1="263" y1="460" x2="350" y2="460" stroke="#C9C9C9" stroke-width="12"/>
<line x1="263" y1="485" x2="350" y2="485" stroke="#C9C9C9" stroke-width="12"/>
<line x1="263" y1="510" x2="350" y2="510" stroke="#C9C9C9" stroke-width="12"/>
<line x1="263" y1="535" x2="350" y2="535" stroke="#C9C9C9" stroke-width="12"/>
<line x1="263" y1="560" x2="350" y2="560" stroke="#C9C9C9" stroke-width="12"/>
<line x1="263" y1="585" x2="350" y2="585" stroke="#C9C9C9" stroke-width="12"/>
<line x1="263" y1="610" x2="350" y2="610" stroke="#C9C9C9" stroke-width="12"/>
<line x1="263" y1="635" x2="350" y2="635" stroke="#C9C9C9" stroke-width="12"/>
<line x1="376" y1="60" x2="463" y2="60" stroke="#C9C9C9" stroke-width="12"/>
<line x1="376" y1="85" x2="463" y2="85" stroke="#C9C9C9" stroke-width="12"/>
<line x1="376" y1="110" x2="463" y2="110" stroke="#C9C9C9" stroke-width="12"/>
<line x1="376" y1="135" x2="463" y2="135" stroke="#C9C9C9" stroke-width="12"/>
<line x1="376" y1="160" x2="463" y2="160" stroke="#C9C9C9" stroke-width="12"/>
<line x1="376" y1="185" x2="463" y2="185" stroke="#C9C9C9" stroke-width="12"/>
<line x1="376" y1="210" x2="463" y2="210" stroke="#C9C9C9" stroke-width="12"/>
<line x1="376" y1="235" x2="463" y2="235" stroke="#C9C9C9" stroke-width="12"/>
<line x1="376" y1="260" x2="463" y2="260" stroke="#C9C9C9" stroke-width="12"/>
<line x1="376" y1="285" x2="463" y2="285" stroke="#C9C9C9" stroke-width="12"/>
<line x1="376" y1="310" x2="463" y2="310" stroke="#C9C9C9" stroke-width="12"/>
<line x1="376" y1="335" x2="463" y2="335" stroke="#C9C9C9" stroke-width="12"/>
<line x1="376" y1="360" x2="463" y2="360" stroke="#C9C9C9" stroke-width="12"/>
<line x1="376" y1="385" x2="463" y2="385" stroke="#C9C9C9" stroke-width="12"/>
<line x1="376" y1="410" x2="463" y2="410" stroke="#C9C9C9" stroke-width="12"/>
<line x1="376" y1="435" x2="463" y2="435" stroke="#C9C9C9" stroke-width="12"/>
<line x1="376" y1="460" x2="463" y2="460" stroke="#C9C9C9" stroke-width="12"/>
<line x1="376" y1="485" x2="463" y2="485" stroke="#C9C9C9" stroke-width="12"/>
<line x1="376" y1="510" x2="463" y2="510" stroke="#C9C9C9" stroke-width="12"/>
<line x1="376" y1="535" x2="463" y2="535" stroke="#C9C9C9" stroke-width="12"/>
<line x1="376" y1="560" x2="463" y2="560" stroke="#C9C9C9" stroke-width="12"/>
<line x1="376" y1="585" x2="463" y2="585" stroke="#C9C9C9" stroke-width="12"/>
<line x1="376" y1="610" x2="463" y2="610" stroke="#C9C9C9" stroke-width="12"/>
<line x1="376" y1="635" x2="463" y2="635" stroke="#C9C9C9" stroke-width="12"/>
<rect x="25" y="478" width="224" height="175" fill="#FFC700" stroke="white" stroke-width="24"/>
</svg>
