<svg width="511" height="689" viewBox="0 0 511 689" fill="none" xmlns="http://www.w3.org/2000/svg">
<rect width="511" height="689" fill="white"/>
<path d="M3 3H508V686H3V3Z" stroke="black" stroke-width="6"/>
<line x1="45" y1="59" x2="244.179" y2="59" stroke="#C9C9C9" stroke-width="12"/>
<line x1="45" y1="84" x2="244.179" y2="84" stroke="#C9C9C9" stroke-width="12"/>
<line x1="45" y1="109" x2="244.179" y2="109" stroke="#C9C9C9" stroke-width="12"/>
<line x1="45" y1="134" x2="244.179" y2="134" stroke="#C9C9C9" stroke-width="12"/>
<line x1="45" y1="159" x2="244.179" y2="159" stroke="#C9C9C9" stroke-width="12"/>
<line x1="45" y1="184" x2="244.179" y2="184" stroke="#C9C9C9" stroke-width="12"/>
<line x1="45" y1="209" x2="244.179" y2="209" stroke="#C9C9C9" stroke-width="12"/>
<line x1="45" y1="234" x2="244.179" y2="234" stroke="#C9C9C9" stroke-width="12"/>
<line x1="45" y1="259" x2="244.179" y2="259" stroke="#C9C9C9" stroke-width="12"/>
<line x1="45" y1="284" x2="244.179" y2="284" stroke="#C9C9C9" stroke-width="12"/>
<line x1="45" y1="309" x2="244.179" y2="309" stroke="#C9C9C9" stroke-width="12"/>
<line x1="45" y1="334" x2="244.179" y2="334" stroke="#C9C9C9" stroke-width="12"/>
<line x1="45" y1="359" x2="244.179" y2="359" stroke="#C9C9C9" stroke-width="12"/>
<line x1="45" y1="384" x2="244.179" y2="384" stroke="#C9C9C9" stroke-width="12"/>
<line x1="45" y1="409" x2="244.179" y2="409" stroke="#C9C9C9" stroke-width="12"/>
<line x1="45" y1="434" x2="244.179" y2="434" stroke="#C9C9C9" stroke-width="12"/>
<line x1="45" y1="459" x2="244.179" y2="459" stroke="#C9C9C9" stroke-width="12"/>
<line x1="45" y1="484" x2="244.179" y2="484" stroke="#C9C9C9" stroke-width="12"/>
<line x1="45" y1="509" x2="244.179" y2="509" stroke="#C9C9C9" stroke-width="12"/>
<line x1="45" y1="534" x2="244.179" y2="534" stroke="#C9C9C9" stroke-width="12"/>
<line x1="45" y1="559" x2="244.179" y2="559" stroke="#C9C9C9" stroke-width="12"/>
<line x1="45" y1="584" x2="244.179" y2="584" stroke="#C9C9C9" stroke-width="12"/>
<line x1="45" y1="609" x2="244.179" y2="609" stroke="#C9C9C9" stroke-width="12"/>
<line x1="45" y1="634" x2="244.179" y2="634" stroke="#C9C9C9" stroke-width="12"/>
<line x1="267" y1="59" x2="466.179" y2="59" stroke="#C9C9C9" stroke-width="12"/>
<line x1="267" y1="84" x2="466.179" y2="84" stroke="#C9C9C9" stroke-width="12"/>
<line x1="267" y1="109" x2="466.179" y2="109" stroke="#C9C9C9" stroke-width="12"/>
<line x1="267" y1="134" x2="466.179" y2="134" stroke="#C9C9C9" stroke-width="12"/>
<line x1="267" y1="159" x2="466.179" y2="159" stroke="#C9C9C9" stroke-width="12"/>
<line x1="267" y1="184" x2="466.179" y2="184" stroke="#C9C9C9" stroke-width="12"/>
<line x1="267" y1="209" x2="466.179" y2="209" stroke="#C9C9C9" stroke-width="12"/>
<line x1="267" y1="234" x2="466.179" y2="234" stroke="#C9C9C9" stroke-width="12"/>
<line x1="267" y1="259" x2="466.179" y2="259" stroke="#C9C9C9" stroke-width="12"/>
<line x1="267" y1="284" x2="466.179" y2="284" stroke="#C9C9C9" stroke-width="12"/>
<line x1="267" y1="309" x2="466.179" y2="309" stroke="#C9C9C9" stroke-width="12"/>
<line x1="267" y1="334" x2="466.179" y2="334" stroke="#C9C9C9" stroke-width="12"/>
<line x1="267" y1="359" x2="466.179" y2="359" stroke="#C9C9C9" stroke-width="12"/>
<line x1="267" y1="384" x2="466.179" y2="384" stroke="#C9C9C9" stroke-width="12"/>
<line x1="267" y1="409" x2="466.179" y2="409" stroke="#C9C9C9" stroke-width="12"/>
<line x1="267" y1="434" x2="466.179" y2="434" stroke="#C9C9C9" stroke-width="12"/>
<line x1="267" y1="459" x2="466.179" y2="459" stroke="#C9C9C9" stroke-width="12"/>
<line x1="267" y1="484" x2="466.179" y2="484" stroke="#C9C9C9" stroke-width="12"/>
<line x1="267" y1="509" x2="466.179" y2="509" stroke="#C9C9C9" stroke-width="12"/>
<line x1="267" y1="534" x2="466.179" y2="534" stroke="#C9C9C9" stroke-width="12"/>
<line x1="267" y1="559" x2="466.179" y2="559" stroke="#C9C9C9" stroke-width="12"/>
<line x1="267" y1="584" x2="466.179" y2="584" stroke="#C9C9C9" stroke-width="12"/>
<line x1="267" y1="609" x2="466.179" y2="609" stroke="#C9C9C9" stroke-width="12"/>
<line x1="267" y1="634" x2="466.179" y2="634" stroke="#C9C9C9" stroke-width="12"/>
<rect x="33" y="42" width="325" height="294" fill="#FFC700" stroke="white" stroke-width="24"/>
</svg>
