<svg width="511" height="689" viewBox="0 0 511 689" fill="none" xmlns="http://www.w3.org/2000/svg">
<rect width="511" height="689" fill="white"/>
<path d="M3 3H508V686H3V3Z" stroke="black" stroke-width="6"/>
<line x1="466" y1="49" x2="466" y2="181" stroke="#C9C9C9" stroke-width="12"/>
<line x1="441" y1="49" x2="441" y2="181" stroke="#C9C9C9" stroke-width="12"/>
<line x1="416" y1="49" x2="416" y2="181" stroke="#C9C9C9" stroke-width="12"/>
<line x1="391" y1="49" x2="391" y2="181" stroke="#C9C9C9" stroke-width="12"/>
<line x1="366" y1="49" x2="366" y2="181" stroke="#C9C9C9" stroke-width="12"/>
<line x1="341" y1="49" x2="341" y2="181" stroke="#C9C9C9" stroke-width="12"/>
<line x1="316" y1="49" x2="316" y2="181" stroke="#C9C9C9" stroke-width="12"/>
<line x1="291" y1="49" x2="291" y2="181" stroke="#C9C9C9" stroke-width="12"/>
<line x1="266" y1="49" x2="266" y2="181" stroke="#C9C9C9" stroke-width="12"/>
<line x1="241" y1="49" x2="241" y2="181" stroke="#C9C9C9" stroke-width="12"/>
<line x1="216" y1="49" x2="216" y2="181" stroke="#C9C9C9" stroke-width="12"/>
<line x1="191" y1="49" x2="191" y2="181" stroke="#C9C9C9" stroke-width="12"/>
<line x1="166" y1="49" x2="166" y2="181" stroke="#C9C9C9" stroke-width="12"/>
<line x1="141" y1="49" x2="141" y2="181" stroke="#C9C9C9" stroke-width="12"/>
<line x1="116" y1="49" x2="116" y2="181" stroke="#C9C9C9" stroke-width="12"/>
<line x1="91" y1="49" x2="91" y2="181" stroke="#C9C9C9" stroke-width="12"/>
<line x1="66" y1="49" x2="66" y2="181" stroke="#C9C9C9" stroke-width="12"/>
<line x1="41" y1="49" x2="41" y2="181" stroke="#C9C9C9" stroke-width="12"/>
<line x1="466" y1="202" x2="466" y2="334" stroke="#C9C9C9" stroke-width="12"/>
<line x1="441" y1="202" x2="441" y2="334" stroke="#C9C9C9" stroke-width="12"/>
<line x1="416" y1="202" x2="416" y2="334" stroke="#C9C9C9" stroke-width="12"/>
<line x1="391" y1="202" x2="391" y2="334" stroke="#C9C9C9" stroke-width="12"/>
<line x1="366" y1="202" x2="366" y2="334" stroke="#C9C9C9" stroke-width="12"/>
<line x1="341" y1="202" x2="341" y2="334" stroke="#C9C9C9" stroke-width="12"/>
<line x1="316" y1="202" x2="316" y2="334" stroke="#C9C9C9" stroke-width="12"/>
<line x1="291" y1="202" x2="291" y2="334" stroke="#C9C9C9" stroke-width="12"/>
<line x1="266" y1="202" x2="266" y2="334" stroke="#C9C9C9" stroke-width="12"/>
<line x1="241" y1="202" x2="241" y2="334" stroke="#C9C9C9" stroke-width="12"/>
<line x1="216" y1="202" x2="216" y2="334" stroke="#C9C9C9" stroke-width="12"/>
<line x1="191" y1="202" x2="191" y2="334" stroke="#C9C9C9" stroke-width="12"/>
<line x1="166" y1="202" x2="166" y2="334" stroke="#C9C9C9" stroke-width="12"/>
<line x1="141" y1="202" x2="141" y2="334" stroke="#C9C9C9" stroke-width="12"/>
<line x1="116" y1="202" x2="116" y2="334" stroke="#C9C9C9" stroke-width="12"/>
<line x1="91" y1="202" x2="91" y2="334" stroke="#C9C9C9" stroke-width="12"/>
<line x1="66" y1="202" x2="66" y2="334" stroke="#C9C9C9" stroke-width="12"/>
<line x1="41" y1="202" x2="41" y2="334" stroke="#C9C9C9" stroke-width="12"/>
<line x1="466" y1="356" x2="466" y2="488" stroke="#C9C9C9" stroke-width="12"/>
<line x1="441" y1="356" x2="441" y2="488" stroke="#C9C9C9" stroke-width="12"/>
<line x1="416" y1="356" x2="416" y2="488" stroke="#C9C9C9" stroke-width="12"/>
<line x1="391" y1="356" x2="391" y2="488" stroke="#C9C9C9" stroke-width="12"/>
<line x1="366" y1="356" x2="366" y2="488" stroke="#C9C9C9" stroke-width="12"/>
<line x1="341" y1="356" x2="341" y2="488" stroke="#C9C9C9" stroke-width="12"/>
<line x1="316" y1="356" x2="316" y2="488" stroke="#C9C9C9" stroke-width="12"/>
<line x1="291" y1="356" x2="291" y2="488" stroke="#C9C9C9" stroke-width="12"/>
<line x1="266" y1="356" x2="266" y2="488" stroke="#C9C9C9" stroke-width="12"/>
<line x1="241" y1="356" x2="241" y2="488" stroke="#C9C9C9" stroke-width="12"/>
<line x1="216" y1="356" x2="216" y2="488" stroke="#C9C9C9" stroke-width="12"/>
<line x1="191" y1="356" x2="191" y2="488" stroke="#C9C9C9" stroke-width="12"/>
<line x1="166" y1="356" x2="166" y2="488" stroke="#C9C9C9" stroke-width="12"/>
<line x1="141" y1="356" x2="141" y2="488" stroke="#C9C9C9" stroke-width="12"/>
<line x1="116" y1="356" x2="116" y2="488" stroke="#C9C9C9" stroke-width="12"/>
<line x1="91" y1="356" x2="91" y2="488" stroke="#C9C9C9" stroke-width="12"/>
<line x1="66" y1="356" x2="66" y2="488" stroke="#C9C9C9" stroke-width="12"/>
<line x1="41" y1="356" x2="41" y2="488" stroke="#C9C9C9" stroke-width="12"/>
<line x1="466" y1="509" x2="466" y2="641" stroke="#C9C9C9" stroke-width="12"/>
<line x1="441" y1="509" x2="441" y2="641" stroke="#C9C9C9" stroke-width="12"/>
<line x1="416" y1="509" x2="416" y2="641" stroke="#C9C9C9" stroke-width="12"/>
<line x1="391" y1="509" x2="391" y2="641" stroke="#C9C9C9" stroke-width="12"/>
<line x1="366" y1="509" x2="366" y2="641" stroke="#C9C9C9" stroke-width="12"/>
<line x1="341" y1="509" x2="341" y2="641" stroke="#C9C9C9" stroke-width="12"/>
<line x1="316" y1="509" x2="316" y2="641" stroke="#C9C9C9" stroke-width="12"/>
<line x1="291" y1="509" x2="291" y2="641" stroke="#C9C9C9" stroke-width="12"/>
<line x1="266" y1="509" x2="266" y2="641" stroke="#C9C9C9" stroke-width="12"/>
<line x1="241" y1="509" x2="241" y2="641" stroke="#C9C9C9" stroke-width="12"/>
<line x1="216" y1="509" x2="216" y2="641" stroke="#C9C9C9" stroke-width="12"/>
<line x1="191" y1="509" x2="191" y2="641" stroke="#C9C9C9" stroke-width="12"/>
<line x1="166" y1="509" x2="166" y2="641" stroke="#C9C9C9" stroke-width="12"/>
<line x1="141" y1="509" x2="141" y2="641" stroke="#C9C9C9" stroke-width="12"/>
<line x1="116" y1="509" x2="116" y2="641" stroke="#C9C9C9" stroke-width="12"/>
<line x1="91" y1="509" x2="91" y2="641" stroke="#C9C9C9" stroke-width="12"/>
<line x1="66" y1="509" x2="66" y2="641" stroke="#C9C9C9" stroke-width="12"/>
<line x1="41" y1="509" x2="41" y2="641" stroke="#C9C9C9" stroke-width="12"/>
<rect x="235" y="37" width="248" height="381" fill="#FFC700" stroke="white" stroke-width="24"/>
</svg>
