<svg width="502" height="144" viewBox="0 0 502 144" fill="none" xmlns="http://www.w3.org/2000/svg">
<rect width="502" height="144" fill="white"/>
<rect x="190" y="15" width="122" height="39" rx="11" stroke="black" stroke-width="2"/>
<path d="M237.349 39.444C237.253 39.444 237.181 39.408 237.157 39.312L234.805 32.904C234.793 32.88 234.793 32.856 234.793 32.844C234.793 32.76 234.853 32.712 234.949 32.712H236.569C236.665 32.712 236.725 32.748 236.749 32.856L237.889 36.576L239.473 32.844C239.509 32.76 239.569 32.712 239.665 32.712H240.517C240.613 32.712 240.673 32.748 240.721 32.844L242.209 36.48L243.421 32.856C243.445 32.76 243.517 32.712 243.613 32.712H245.089C245.209 32.712 245.281 32.796 245.233 32.904L242.881 39.312C242.857 39.408 242.785 39.444 242.689 39.444H241.837C241.741 39.444 241.681 39.408 241.633 39.312L240.061 35.472L238.405 39.312C238.357 39.396 238.297 39.444 238.201 39.444H237.349ZM248.33 39.444C248.234 39.444 248.162 39.408 248.138 39.312L245.786 32.904C245.774 32.88 245.774 32.856 245.774 32.844C245.774 32.76 245.834 32.712 245.93 32.712H247.55C247.646 32.712 247.706 32.748 247.73 32.856L248.87 36.576L250.454 32.844C250.49 32.76 250.55 32.712 250.646 32.712H251.498C251.594 32.712 251.654 32.748 251.702 32.844L253.19 36.48L254.402 32.856C254.426 32.76 254.498 32.712 254.594 32.712H256.07C256.19 32.712 256.262 32.796 256.214 32.904L253.862 39.312C253.838 39.408 253.766 39.444 253.67 39.444H252.818C252.722 39.444 252.662 39.408 252.614 39.312L251.042 35.472L249.386 39.312C249.338 39.396 249.278 39.444 249.182 39.444H248.33ZM259.31 39.444C259.214 39.444 259.142 39.408 259.118 39.312L256.766 32.904C256.754 32.88 256.754 32.856 256.754 32.844C256.754 32.76 256.814 32.712 256.91 32.712H258.53C258.626 32.712 258.686 32.748 258.71 32.856L259.85 36.576L261.434 32.844C261.47 32.76 261.53 32.712 261.626 32.712H262.478C262.574 32.712 262.634 32.748 262.682 32.844L264.17 36.48L265.382 32.856C265.406 32.76 265.478 32.712 265.574 32.712H267.05C267.17 32.712 267.242 32.796 267.194 32.904L264.842 39.312C264.818 39.408 264.746 39.444 264.65 39.444H263.798C263.702 39.444 263.642 39.408 263.594 39.312L262.022 35.472L260.366 39.312C260.318 39.396 260.258 39.444 260.162 39.444H259.31Z" fill="black"/>
<rect x="371" y="91" width="122" height="39" rx="11" stroke="black" stroke-width="2"/>
<path d="M381.3 115.444C381.192 115.444 381.132 115.384 381.132 115.276V108.88C381.132 108.772 381.192 108.712 381.3 108.712H382.524C382.62 108.712 382.704 108.76 382.704 108.88L382.74 109.684C383.22 108.964 384.036 108.58 384.876 108.58C385.884 108.58 386.628 109.024 386.988 109.816C387.48 109 388.368 108.58 389.292 108.58C390.756 108.58 391.656 109.516 391.656 111.064V115.276C391.656 115.384 391.584 115.444 391.488 115.444H390.132C390.024 115.444 389.964 115.384 389.964 115.276V111.748C389.964 110.632 389.544 110.116 388.764 110.116C387.972 110.116 387.24 110.728 387.24 112.012V115.276C387.24 115.384 387.168 115.444 387.072 115.444H385.716C385.608 115.444 385.548 115.384 385.548 115.276V111.748C385.548 110.632 385.128 110.116 384.348 110.116C383.556 110.116 382.812 110.728 382.812 112.012V115.276C382.812 115.384 382.752 115.444 382.644 115.444H381.3ZM394.093 118.276C393.973 118.276 393.925 118.204 393.961 118.084L395.197 115.012L392.497 108.904C392.485 108.88 392.473 108.844 392.473 108.82C392.473 108.76 392.533 108.712 392.629 108.712H394.237C394.333 108.712 394.393 108.748 394.429 108.844L396.073 112.972L397.669 108.844C397.705 108.748 397.777 108.712 397.861 108.712H399.349C399.457 108.712 399.529 108.796 399.469 108.904L395.701 118.144C395.665 118.24 395.605 118.276 395.509 118.276H394.093ZM400.566 112.012C400.458 112.012 400.398 111.952 400.398 111.844V110.584C400.398 110.476 400.458 110.416 400.566 110.416H404.454C404.55 110.416 404.622 110.476 404.622 110.584V111.844C404.622 111.952 404.55 112.012 404.454 112.012H400.566ZM410.225 115.576C409.289 115.576 408.509 115.18 408.029 114.52L407.993 115.276C407.993 115.396 407.909 115.444 407.813 115.444H406.589C406.481 115.444 406.421 115.384 406.421 115.276V105.868C406.421 105.76 406.481 105.7 406.589 105.7H407.933C408.041 105.7 408.101 105.76 408.101 105.868V109.528C408.605 108.928 409.337 108.58 410.225 108.58C412.145 108.58 413.369 110.008 413.369 112.084C413.369 114.148 412.145 115.576 410.225 115.576ZM407.993 112.084C407.993 113.236 408.725 114.04 409.805 114.04C410.885 114.04 411.629 113.236 411.629 112.084C411.629 110.92 410.885 110.116 409.805 110.116C408.725 110.116 407.993 110.92 407.993 112.084ZM417.921 115.576C415.761 115.576 414.357 114.124 414.357 112.084C414.357 110.032 415.761 108.58 417.921 108.58C420.081 108.58 421.485 110.032 421.485 112.084C421.485 114.124 420.081 115.576 417.921 115.576ZM416.097 112.084C416.097 113.236 416.841 114.04 417.921 114.04C419.001 114.04 419.745 113.236 419.745 112.084C419.745 110.92 419.001 110.116 417.921 110.116C416.841 110.116 416.097 110.92 416.097 112.084ZM426.031 115.576C423.871 115.576 422.467 114.124 422.467 112.084C422.467 110.032 423.871 108.58 426.031 108.58C428.191 108.58 429.595 110.032 429.595 112.084C429.595 114.124 428.191 115.576 426.031 115.576ZM424.207 112.084C424.207 113.236 424.951 114.04 426.031 114.04C427.111 114.04 427.855 113.236 427.855 112.084C427.855 110.92 427.111 110.116 426.031 110.116C424.951 110.116 424.207 110.92 424.207 112.084ZM431.14 115.444C431.032 115.444 430.972 115.384 430.972 115.276V105.868C430.972 105.76 431.032 105.7 431.14 105.7H432.484C432.592 105.7 432.652 105.76 432.652 105.868V111.34L435.1 108.808C435.16 108.736 435.232 108.712 435.304 108.712H437.044C437.14 108.712 437.2 108.76 437.2 108.82C437.2 108.844 437.176 108.88 437.14 108.916L434.896 111.124L437.404 115.24C437.428 115.276 437.428 115.312 437.428 115.336C437.428 115.396 437.392 115.444 437.296 115.444H435.688C435.592 115.444 435.532 115.408 435.496 115.324L433.672 112.336L432.652 113.32V115.276C432.652 115.384 432.592 115.444 432.484 115.444H431.14ZM438.23 112.012C438.122 112.012 438.062 111.952 438.062 111.844V110.584C438.062 110.476 438.122 110.416 438.23 110.416H442.118C442.214 110.416 442.286 110.476 442.286 110.584V111.844C442.286 111.952 442.214 112.012 442.118 112.012H438.23ZM446.572 115.576C445.12 115.576 444.316 114.664 444.316 112.84V110.224H443.332C443.224 110.224 443.164 110.152 443.164 110.056V108.88C443.164 108.772 443.224 108.712 443.332 108.712H444.316V106.9C444.316 106.804 444.376 106.732 444.484 106.732H445.84C445.936 106.732 446.008 106.804 446.008 106.9V108.712H447.604C447.712 108.712 447.772 108.772 447.772 108.88V110.056C447.772 110.152 447.712 110.224 447.604 110.224H446.008V112.948C446.008 113.68 446.236 114.04 446.764 114.04C446.98 114.04 447.136 113.944 447.268 113.716C447.316 113.62 447.4 113.584 447.496 113.632L448.516 114.088C448.576 114.124 448.612 114.172 448.612 114.232C448.612 114.268 448.6 114.316 448.564 114.364C448.084 115.252 447.34 115.576 446.572 115.576ZM449.691 115.444C449.583 115.444 449.523 115.384 449.523 115.276V105.868C449.523 105.76 449.583 105.7 449.691 105.7H451.035C451.143 105.7 451.203 105.76 451.203 105.868V109.54C451.719 108.892 452.511 108.58 453.327 108.58C454.887 108.58 455.787 109.516 455.787 111.064V115.276C455.787 115.384 455.715 115.444 455.619 115.444H454.263C454.155 115.444 454.095 115.384 454.095 115.276V111.748C454.095 110.632 453.687 110.116 452.811 110.116C451.983 110.116 451.203 110.728 451.203 112.012V115.276C451.203 115.384 451.143 115.444 451.035 115.444H449.691ZM460.515 115.576C458.391 115.576 457.107 114.124 457.107 112.084C457.107 110.032 458.391 108.58 460.515 108.58C462.579 108.58 463.767 110.116 463.695 112.432C463.683 112.54 463.623 112.6 463.515 112.6H458.907C459.063 113.524 459.627 114.076 460.527 114.076C461.211 114.076 461.691 113.824 462.003 113.308C462.063 113.224 462.135 113.212 462.231 113.236L463.383 113.632C463.491 113.68 463.527 113.752 463.479 113.86C462.879 115.036 461.763 115.576 460.515 115.576ZM461.895 111.34C461.739 110.548 461.223 110.08 460.503 110.08C459.711 110.08 459.135 110.536 458.931 111.34H461.895ZM465.124 115.444C465.016 115.444 464.956 115.384 464.956 115.276V108.88C464.956 108.772 465.016 108.712 465.124 108.712H466.348C466.444 108.712 466.528 108.76 466.528 108.88L466.564 109.684C467.044 108.964 467.86 108.58 468.7 108.58C469.708 108.58 470.452 109.024 470.812 109.816C471.304 109 472.192 108.58 473.116 108.58C474.58 108.58 475.48 109.516 475.48 111.064V115.276C475.48 115.384 475.408 115.444 475.312 115.444H473.956C473.848 115.444 473.788 115.384 473.788 115.276V111.748C473.788 110.632 473.368 110.116 472.588 110.116C471.796 110.116 471.064 110.728 471.064 112.012V115.276C471.064 115.384 470.992 115.444 470.896 115.444H469.54C469.432 115.444 469.372 115.384 469.372 115.276V111.748C469.372 110.632 468.952 110.116 468.172 110.116C467.38 110.116 466.636 110.728 466.636 112.012V115.276C466.636 115.384 466.576 115.444 466.468 115.444H465.124ZM480.203 115.576C478.079 115.576 476.795 114.124 476.795 112.084C476.795 110.032 478.079 108.58 480.203 108.58C482.267 108.58 483.455 110.116 483.383 112.432C483.371 112.54 483.311 112.6 483.203 112.6H478.595C478.751 113.524 479.315 114.076 480.215 114.076C480.899 114.076 481.379 113.824 481.691 113.308C481.751 113.224 481.823 113.212 481.919 113.236L483.071 113.632C483.179 113.68 483.215 113.752 483.167 113.86C482.567 115.036 481.451 115.576 480.203 115.576ZM481.583 111.34C481.427 110.548 480.911 110.08 480.191 110.08C479.399 110.08 478.823 110.536 478.619 111.34H481.583Z" fill="black"/>
<rect x="9" y="53" width="122" height="39" rx="11" stroke="black" stroke-width="2"/>
<path d="M26.5365 77.444C26.4285 77.444 26.3685 77.384 26.3685 77.276V70.88C26.3685 70.772 26.4285 70.712 26.5365 70.712H27.7605C27.8565 70.712 27.9405 70.76 27.9405 70.88L27.9765 71.684C28.4565 70.964 29.2725 70.58 30.1125 70.58C31.1205 70.58 31.8645 71.024 32.2245 71.816C32.7165 71 33.6045 70.58 34.5285 70.58C35.9925 70.58 36.8925 71.516 36.8925 73.064V77.276C36.8925 77.384 36.8205 77.444 36.7245 77.444H35.3685C35.2605 77.444 35.2005 77.384 35.2005 77.276V73.748C35.2005 72.632 34.7805 72.116 34.0005 72.116C33.2085 72.116 32.4765 72.728 32.4765 74.012V77.276C32.4765 77.384 32.4045 77.444 32.3085 77.444H30.9525C30.8445 77.444 30.7845 77.384 30.7845 77.276V73.748C30.7845 72.632 30.3645 72.116 29.5845 72.116C28.7925 72.116 28.0485 72.728 28.0485 74.012V77.276C28.0485 77.384 27.9885 77.444 27.8805 77.444H26.5365ZM39.3293 80.276C39.2093 80.276 39.1613 80.204 39.1973 80.084L40.4333 77.012L37.7333 70.904C37.7213 70.88 37.7093 70.844 37.7093 70.82C37.7093 70.76 37.7693 70.712 37.8653 70.712H39.4733C39.5693 70.712 39.6293 70.748 39.6653 70.844L41.3093 74.972L42.9053 70.844C42.9413 70.748 43.0133 70.712 43.0973 70.712H44.5853C44.6933 70.712 44.7653 70.796 44.7053 70.904L40.9373 80.144C40.9013 80.24 40.8413 80.276 40.7453 80.276H39.3293ZM45.8027 74.012C45.6947 74.012 45.6347 73.952 45.6347 73.844V72.584C45.6347 72.476 45.6947 72.416 45.8027 72.416H49.6907C49.7867 72.416 49.8587 72.476 49.8587 72.584V73.844C49.8587 73.952 49.7867 74.012 49.6907 74.012H45.8027ZM52.2215 77.444C52.1255 77.444 52.0535 77.384 52.0535 77.276V72.224H51.1175C51.0215 72.224 50.9495 72.152 50.9495 72.056V70.88C50.9495 70.772 51.0215 70.712 51.1175 70.712H52.0535V70.28C52.0535 68.648 52.9775 67.604 54.4175 67.604C55.0895 67.604 55.6295 67.796 56.0615 68.192C56.0975 68.228 56.1095 68.276 56.1095 68.324C56.1095 68.36 56.1095 68.384 56.0855 68.42L55.4975 69.332C55.4735 69.392 55.4255 69.416 55.3775 69.416C55.3415 69.416 55.3055 69.404 55.2695 69.368C55.0295 69.2 54.8375 69.14 54.5495 69.14C54.0335 69.14 53.7455 69.512 53.7455 70.256V70.712H58.0415C58.1495 70.712 58.2215 70.772 58.2215 70.88V77.276C58.2215 77.384 58.1495 77.444 58.0415 77.444H56.6975C56.5895 77.444 56.5295 77.384 56.5295 77.276V72.224H53.7455V77.276C53.7455 77.384 53.6855 77.444 53.5775 77.444H52.2215ZM56.3735 68.768C56.3735 68.192 56.8055 67.784 57.3695 67.784C57.9455 67.784 58.3775 68.192 58.3775 68.768C58.3775 69.332 57.9455 69.74 57.3695 69.74C56.8055 69.74 56.3735 69.332 56.3735 68.768ZM60.1693 77.444C60.0613 77.444 60.0013 77.384 60.0013 77.276V70.88C60.0013 70.772 60.0613 70.712 60.1693 70.712H61.3933C61.4893 70.712 61.5733 70.76 61.5733 70.88L61.6093 71.72C62.0653 71 62.8573 70.616 63.6613 70.616C63.8533 70.616 63.9853 70.64 64.1173 70.664C64.2253 70.688 64.2613 70.748 64.2613 70.844V72.176C64.2613 72.284 64.2013 72.32 64.1173 72.32C63.9373 72.32 63.7333 72.272 63.4573 72.272C62.5453 72.272 61.6813 72.896 61.6813 73.964V77.276C61.6813 77.384 61.6213 77.444 61.5133 77.444H60.1693ZM67.8273 77.576C66.3633 77.576 65.3313 76.952 64.8993 75.776C64.8873 75.752 64.8873 75.74 64.8873 75.716C64.8873 75.644 64.9353 75.596 65.0193 75.572L66.2073 75.248L66.2553 75.236C66.3273 75.236 66.3873 75.284 66.4113 75.356C66.7233 75.896 67.1913 76.076 67.7673 76.076C68.3313 76.076 68.7513 75.968 68.7513 75.584C68.7513 75.296 68.4633 75.14 67.7553 74.936L67.4313 74.84C65.8113 74.384 65.1873 73.592 65.1873 72.56C65.1873 71.408 66.2313 70.58 67.7553 70.58C69.0513 70.58 69.9753 71.132 70.3833 72.272C70.3953 72.296 70.4073 72.332 70.4073 72.356C70.4073 72.416 70.3593 72.464 70.2873 72.476L69.0993 72.86C69.0753 72.872 69.0513 72.872 69.0273 72.872C68.9673 72.872 68.9193 72.836 68.8833 72.764C68.6433 72.344 68.2953 72.08 67.7193 72.08C67.2873 72.08 66.9273 72.212 66.9273 72.56C66.9273 72.872 67.2273 73.052 67.9713 73.232L68.2833 73.316C69.9393 73.724 70.4913 74.432 70.4913 75.548C70.4913 76.784 69.3753 77.576 67.8273 77.576ZM74.6642 77.576C73.2122 77.576 72.4082 76.664 72.4082 74.84V72.224H71.4242C71.3162 72.224 71.2562 72.152 71.2562 72.056V70.88C71.2562 70.772 71.3162 70.712 71.4242 70.712H72.4082V68.9C72.4082 68.804 72.4682 68.732 72.5762 68.732H73.9322C74.0282 68.732 74.1002 68.804 74.1002 68.9V70.712H75.6962C75.8042 70.712 75.8642 70.772 75.8642 70.88V72.056C75.8642 72.152 75.8042 72.224 75.6962 72.224H74.1002V74.948C74.1002 75.68 74.3282 76.04 74.8562 76.04C75.0722 76.04 75.2282 75.944 75.3602 75.716C75.4082 75.62 75.4922 75.584 75.5882 75.632L76.6082 76.088C76.6682 76.124 76.7042 76.172 76.7042 76.232C76.7042 76.268 76.6922 76.316 76.6562 76.364C76.1762 77.252 75.4322 77.576 74.6642 77.576ZM77.2909 74.012C77.1829 74.012 77.1229 73.952 77.1229 73.844V72.584C77.1229 72.476 77.1829 72.416 77.2909 72.416H81.1789C81.2749 72.416 81.3469 72.476 81.3469 72.584V73.844C81.3469 73.952 81.2749 74.012 81.1789 74.012H77.2909ZM86.9498 77.576C86.0138 77.576 85.2338 77.18 84.7538 76.52L84.7178 77.276C84.7178 77.396 84.6338 77.444 84.5378 77.444H83.3138C83.2058 77.444 83.1458 77.384 83.1458 77.276V67.868C83.1458 67.76 83.2058 67.7 83.3138 67.7H84.6578C84.7658 67.7 84.8258 67.76 84.8258 67.868V71.528C85.3298 70.928 86.0618 70.58 86.9498 70.58C88.8698 70.58 90.0938 72.008 90.0938 74.084C90.0938 76.148 88.8698 77.576 86.9498 77.576ZM84.7178 74.084C84.7178 75.236 85.4498 76.04 86.5298 76.04C87.6098 76.04 88.3538 75.236 88.3538 74.084C88.3538 72.92 87.6098 72.116 86.5298 72.116C85.4498 72.116 84.7178 72.92 84.7178 74.084ZM94.6458 77.576C92.4858 77.576 91.0818 76.124 91.0818 74.084C91.0818 72.032 92.4858 70.58 94.6458 70.58C96.8058 70.58 98.2098 72.032 98.2098 74.084C98.2098 76.124 96.8058 77.576 94.6458 77.576ZM92.8218 74.084C92.8218 75.236 93.5658 76.04 94.6458 76.04C95.7258 76.04 96.4698 75.236 96.4698 74.084C96.4698 72.92 95.7258 72.116 94.6458 72.116C93.5658 72.116 92.8218 72.92 92.8218 74.084ZM102.755 77.576C100.595 77.576 99.1912 76.124 99.1912 74.084C99.1912 72.032 100.595 70.58 102.755 70.58C104.915 70.58 106.319 72.032 106.319 74.084C106.319 76.124 104.915 77.576 102.755 77.576ZM100.931 74.084C100.931 75.236 101.675 76.04 102.755 76.04C103.835 76.04 104.579 75.236 104.579 74.084C104.579 72.92 103.835 72.116 102.755 72.116C101.675 72.116 100.931 72.92 100.931 74.084ZM107.865 77.444C107.757 77.444 107.697 77.384 107.697 77.276V67.868C107.697 67.76 107.757 67.7 107.865 67.7H109.209C109.317 67.7 109.377 67.76 109.377 67.868V73.34L111.825 70.808C111.885 70.736 111.957 70.712 112.029 70.712H113.769C113.865 70.712 113.925 70.76 113.925 70.82C113.925 70.844 113.901 70.88 113.865 70.916L111.621 73.124L114.129 77.24C114.153 77.276 114.153 77.312 114.153 77.336C114.153 77.396 114.117 77.444 114.021 77.444H112.413C112.317 77.444 112.257 77.408 112.221 77.324L110.397 74.336L109.377 75.32V77.276C109.377 77.384 109.317 77.444 109.209 77.444H107.865Z" fill="black"/>
<path d="M189 34.5182L179.246 28.3383L178.771 39.8755L189 34.5182ZM132 72.6747C139.697 72.6747 145.263 70.4421 149.606 67.0088C153.917 63.6012 156.968 59.0508 159.711 54.5322C162.485 49.9615 164.918 45.4805 168.051 41.9108C171.142 38.3889 174.854 35.8348 180.135 35.1393L179.874 33.1564C173.999 33.9303 169.874 36.8017 166.547 40.5915C163.263 44.3336 160.699 49.0506 158.001 53.4943C155.272 57.9901 152.375 62.2704 148.366 65.4399C144.389 68.5837 139.264 70.6747 132 70.6747L132 72.6747Z" fill="black"/>
<path d="M370 106.005L360.491 112.556L359.572 101.046L370 106.005ZM313 33.625C320.938 33.625 326.557 38.0665 330.825 44.5517C335.072 51.0037 338.081 59.6167 340.815 68.2692C343.568 76.9821 346.04 85.7264 349.218 92.6749C352.412 99.6588 356.165 104.47 361.27 105.752L360.783 107.691C354.72 106.169 350.627 100.566 347.399 93.5066C344.154 86.4114 341.628 77.482 338.908 68.8717C336.168 60.201 333.229 51.8413 329.155 45.6513C325.102 39.4946 320.027 35.625 313 35.625L313 33.625Z" fill="black"/>
<path d="M370 121.386L360.261 127.59L359.758 116.054L370 121.386ZM132 76.3853C166.153 76.3853 189.714 79.4409 207.819 83.9724C225.93 88.5053 238.545 94.5066 250.769 100.335C262.987 106.159 274.802 111.803 291.419 115.731C308.04 119.66 329.509 121.88 360.99 120.778L361.06 122.777C329.455 123.883 307.8 121.658 290.959 117.677C274.114 113.695 262.129 107.966 249.909 102.14C237.696 96.3178 225.236 90.3932 207.333 85.9126C189.426 81.4306 166.035 78.3853 132 78.3853L132 76.3853Z" fill="black"/>
</svg>
