<svg width="592" height="367" viewBox="0 0 592 367" fill="none" xmlns="http://www.w3.org/2000/svg">
<rect width="592" height="367" fill="white"/>
<path d="M470 330.923V192.755L579.624 184.613V322.782L470 330.923Z" fill="white" stroke="black" stroke-width="2"/>
<rect x="470" y="192.826" width="112" height="138" fill="white" stroke="black" stroke-width="2"/>
<path d="M334 201.923V63.7546L443.624 55.6133V193.782L334 201.923Z" fill="white" stroke="black" stroke-width="2"/>
<rect x="334" y="63.8261" width="112" height="138" fill="white" stroke="black" stroke-width="2"/>
<rect x="16" y="35" width="289" height="320" rx="6" fill="white" stroke="black" stroke-width="2"/>
<path d="M41.528 64.872C41.42 64.872 41.36 64.8 41.384 64.68L44.408 53.844C44.432 53.736 44.492 53.7 44.588 53.7H45.92C46.04 53.7 46.1 53.772 46.064 53.892L43.052 64.728C43.028 64.836 42.968 64.872 42.872 64.872H41.528Z" fill="black"/>
<path d="M118.528 64.872C118.42 64.872 118.36 64.8 118.384 64.68L121.408 53.844C121.432 53.736 121.492 53.7 121.588 53.7H122.92C123.04 53.7 123.1 53.772 123.064 53.892L120.052 64.728C120.028 64.836 119.968 64.872 119.872 64.872H118.528ZM126.452 63.576C124.532 63.576 123.308 62.148 123.308 60.084C123.308 58.008 124.532 56.58 126.452 56.58C127.388 56.58 128.168 56.976 128.648 57.636L128.696 56.88C128.696 56.76 128.768 56.712 128.876 56.712H130.088C130.196 56.712 130.268 56.772 130.268 56.88V63.276C130.268 63.384 130.196 63.444 130.088 63.444H128.876C128.768 63.444 128.696 63.396 128.696 63.276L128.648 62.52C128.168 63.18 127.388 63.576 126.452 63.576ZM125.048 60.084C125.048 61.236 125.792 62.04 126.872 62.04C127.952 62.04 128.696 61.236 128.696 60.084C128.696 58.92 127.952 58.116 126.872 58.116C125.792 58.116 125.048 58.92 125.048 60.084ZM135.84 63.576C134.904 63.576 134.124 63.18 133.644 62.52L133.608 63.276C133.608 63.396 133.524 63.444 133.428 63.444H132.204C132.096 63.444 132.036 63.384 132.036 63.276V53.868C132.036 53.76 132.096 53.7 132.204 53.7H133.548C133.656 53.7 133.716 53.76 133.716 53.868V57.528C134.22 56.928 134.952 56.58 135.84 56.58C137.76 56.58 138.984 58.008 138.984 60.084C138.984 62.148 137.76 63.576 135.84 63.576ZM133.608 60.084C133.608 61.236 134.34 62.04 135.42 62.04C136.5 62.04 137.244 61.236 137.244 60.084C137.244 58.92 136.5 58.116 135.42 58.116C134.34 58.116 133.608 58.92 133.608 60.084ZM143.536 63.576C141.376 63.576 139.972 62.124 139.972 60.084C139.972 58.032 141.376 56.58 143.536 56.58C145.696 56.58 147.1 58.032 147.1 60.084C147.1 62.124 145.696 63.576 143.536 63.576ZM141.712 60.084C141.712 61.236 142.456 62.04 143.536 62.04C144.616 62.04 145.36 61.236 145.36 60.084C145.36 58.92 144.616 58.116 143.536 58.116C142.456 58.116 141.712 58.92 141.712 60.084ZM150.878 63.576C149.318 63.576 148.418 62.64 148.418 61.092V56.88C148.418 56.772 148.49 56.712 148.586 56.712H149.942C150.05 56.712 150.11 56.772 150.11 56.88V60.408C150.11 61.524 150.518 62.04 151.394 62.04C152.222 62.04 153.002 61.428 153.002 60.144V56.88C153.002 56.772 153.062 56.712 153.17 56.712H154.514C154.622 56.712 154.682 56.772 154.682 56.88V63.276C154.682 63.384 154.622 63.444 154.514 63.444H153.29C153.194 63.444 153.11 63.396 153.11 63.276L153.074 62.508C152.582 63.228 151.73 63.576 150.878 63.576ZM159.074 63.576C157.622 63.576 156.818 62.664 156.818 60.84V58.224H155.834C155.726 58.224 155.666 58.152 155.666 58.056V56.88C155.666 56.772 155.726 56.712 155.834 56.712H156.818V54.9C156.818 54.804 156.878 54.732 156.986 54.732H158.342C158.438 54.732 158.51 54.804 158.51 54.9V56.712H160.106C160.214 56.712 160.274 56.772 160.274 56.88V58.056C160.274 58.152 160.214 58.224 160.106 58.224H158.51V60.948C158.51 61.68 158.738 62.04 159.266 62.04C159.482 62.04 159.638 61.944 159.77 61.716C159.818 61.62 159.902 61.584 159.998 61.632L161.018 62.088C161.078 62.124 161.114 62.172 161.114 62.232C161.114 62.268 161.102 62.316 161.066 62.364C160.586 63.252 159.842 63.576 159.074 63.576Z" fill="black"/>
<path d="M118.528 136.872C118.42 136.872 118.36 136.8 118.384 136.68L121.408 125.844C121.432 125.736 121.492 125.7 121.588 125.7H122.92C123.04 125.7 123.1 125.772 123.064 125.892L120.052 136.728C120.028 136.836 119.968 136.872 119.872 136.872H118.528ZM128.153 135.576C127.217 135.576 126.437 135.18 125.957 134.52L125.921 135.276C125.921 135.396 125.837 135.444 125.741 135.444H124.517C124.409 135.444 124.349 135.384 124.349 135.276V125.868C124.349 125.76 124.409 125.7 124.517 125.7H125.861C125.969 125.7 126.029 125.76 126.029 125.868V129.528C126.533 128.928 127.265 128.58 128.153 128.58C130.073 128.58 131.297 130.008 131.297 132.084C131.297 134.148 130.073 135.576 128.153 135.576ZM125.921 132.084C125.921 133.236 126.653 134.04 127.733 134.04C128.813 134.04 129.557 133.236 129.557 132.084C129.557 130.92 128.813 130.116 127.733 130.116C126.653 130.116 125.921 130.92 125.921 132.084ZM132.849 135.444C132.741 135.444 132.681 135.384 132.681 135.276V125.868C132.681 125.76 132.741 125.7 132.849 125.7H134.193C134.301 125.7 134.361 125.76 134.361 125.868V135.276C134.361 135.384 134.301 135.444 134.193 135.444H132.849ZM139.306 135.576C137.146 135.576 135.742 134.124 135.742 132.084C135.742 130.032 137.146 128.58 139.306 128.58C141.466 128.58 142.87 130.032 142.87 132.084C142.87 134.124 141.466 135.576 139.306 135.576ZM137.482 132.084C137.482 133.236 138.226 134.04 139.306 134.04C140.386 134.04 141.13 133.236 141.13 132.084C141.13 130.92 140.386 130.116 139.306 130.116C138.226 130.116 137.482 130.92 137.482 132.084ZM147.247 138.408C145.807 138.408 144.559 137.76 144.031 136.476C144.019 136.44 144.007 136.416 144.007 136.392C144.007 136.332 144.055 136.284 144.127 136.26L145.219 135.864C145.243 135.852 145.267 135.84 145.291 135.84C145.351 135.84 145.399 135.888 145.435 135.948C145.759 136.512 146.287 136.872 147.187 136.872C148.231 136.872 149.119 136.428 149.119 135.24V134.628C148.627 135.228 147.883 135.576 146.995 135.576C145.075 135.576 143.851 134.148 143.851 132.084C143.851 130.008 145.075 128.58 146.995 128.58C147.931 128.58 148.711 128.976 149.191 129.636L149.239 128.88C149.239 128.76 149.311 128.712 149.419 128.712H150.631C150.739 128.712 150.811 128.772 150.811 128.88V135.072C150.811 137.208 149.359 138.408 147.247 138.408ZM145.591 132.084C145.591 133.236 146.335 134.04 147.415 134.04C148.495 134.04 149.239 133.236 149.239 132.084C149.239 130.92 148.495 130.116 147.415 130.116C146.335 130.116 145.591 130.92 145.591 132.084ZM152.219 136.872C152.111 136.872 152.051 136.8 152.075 136.68L155.099 125.844C155.123 125.736 155.183 125.7 155.279 125.7H156.611C156.731 125.7 156.791 125.772 156.755 125.892L153.743 136.728C153.719 136.836 153.659 136.872 153.563 136.872H152.219ZM161.227 135.624C158.911 135.624 157.531 133.776 157.531 130.68C157.531 127.572 158.911 125.724 161.227 125.724C163.555 125.724 164.923 127.572 164.923 130.68C164.923 133.776 163.555 135.624 161.227 135.624ZM159.355 130.68C159.355 132.888 160.063 133.908 161.227 133.908C162.391 133.908 163.111 132.888 163.111 130.68C163.111 128.46 162.391 127.44 161.227 127.44C160.063 127.44 159.355 128.46 159.355 130.68ZM168.374 135.444C168.266 135.444 168.206 135.384 168.206 135.276V128.244L166.466 128.928C166.442 128.94 166.406 128.952 166.382 128.952C166.334 128.952 166.286 128.916 166.238 128.844L165.998 128.376C165.974 128.34 165.974 128.304 165.974 128.28C165.974 128.22 165.998 128.184 166.046 128.136L168.566 125.988C168.638 125.916 168.698 125.904 168.77 125.904H169.79C169.898 125.904 169.958 125.964 169.958 126.072V135.276C169.958 135.384 169.898 135.444 169.79 135.444H168.374Z" fill="black"/>
<path d="M196.528 136.872C196.42 136.872 196.36 136.8 196.384 136.68L199.408 125.844C199.432 125.736 199.492 125.7 199.588 125.7H200.92C201.04 125.7 201.1 125.772 201.064 125.892L198.052 136.728C198.028 136.836 197.968 136.872 197.872 136.872H196.528ZM206.153 135.576C205.217 135.576 204.437 135.18 203.957 134.52L203.921 135.276C203.921 135.396 203.837 135.444 203.741 135.444H202.517C202.409 135.444 202.349 135.384 202.349 135.276V125.868C202.349 125.76 202.409 125.7 202.517 125.7H203.861C203.969 125.7 204.029 125.76 204.029 125.868V129.528C204.533 128.928 205.265 128.58 206.153 128.58C208.073 128.58 209.297 130.008 209.297 132.084C209.297 134.148 208.073 135.576 206.153 135.576ZM203.921 132.084C203.921 133.236 204.653 134.04 205.733 134.04C206.813 134.04 207.557 133.236 207.557 132.084C207.557 130.92 206.813 130.116 205.733 130.116C204.653 130.116 203.921 130.92 203.921 132.084ZM210.849 135.444C210.741 135.444 210.681 135.384 210.681 135.276V125.868C210.681 125.76 210.741 125.7 210.849 125.7H212.193C212.301 125.7 212.361 125.76 212.361 125.868V135.276C212.361 135.384 212.301 135.444 212.193 135.444H210.849ZM217.306 135.576C215.146 135.576 213.742 134.124 213.742 132.084C213.742 130.032 215.146 128.58 217.306 128.58C219.466 128.58 220.87 130.032 220.87 132.084C220.87 134.124 219.466 135.576 217.306 135.576ZM215.482 132.084C215.482 133.236 216.226 134.04 217.306 134.04C218.386 134.04 219.13 133.236 219.13 132.084C219.13 130.92 218.386 130.116 217.306 130.116C216.226 130.116 215.482 130.92 215.482 132.084ZM225.247 138.408C223.807 138.408 222.559 137.76 222.031 136.476C222.019 136.44 222.007 136.416 222.007 136.392C222.007 136.332 222.055 136.284 222.127 136.26L223.219 135.864C223.243 135.852 223.267 135.84 223.291 135.84C223.351 135.84 223.399 135.888 223.435 135.948C223.759 136.512 224.287 136.872 225.187 136.872C226.231 136.872 227.119 136.428 227.119 135.24V134.628C226.627 135.228 225.883 135.576 224.995 135.576C223.075 135.576 221.851 134.148 221.851 132.084C221.851 130.008 223.075 128.58 224.995 128.58C225.931 128.58 226.711 128.976 227.191 129.636L227.239 128.88C227.239 128.76 227.311 128.712 227.419 128.712H228.631C228.739 128.712 228.811 128.772 228.811 128.88V135.072C228.811 137.208 227.359 138.408 225.247 138.408ZM223.591 132.084C223.591 133.236 224.335 134.04 225.415 134.04C226.495 134.04 227.239 133.236 227.239 132.084C227.239 130.92 226.495 130.116 225.415 130.116C224.335 130.116 223.591 130.92 223.591 132.084ZM230.219 136.872C230.111 136.872 230.051 136.8 230.075 136.68L233.099 125.844C233.123 125.736 233.183 125.7 233.279 125.7H234.611C234.731 125.7 234.791 125.772 234.755 125.892L231.743 136.728C231.719 136.836 231.659 136.872 231.563 136.872H230.219ZM239.227 135.624C236.911 135.624 235.531 133.776 235.531 130.68C235.531 127.572 236.911 125.724 239.227 125.724C241.555 125.724 242.923 127.572 242.923 130.68C242.923 133.776 241.555 135.624 239.227 135.624ZM237.355 130.68C237.355 132.888 238.063 133.908 239.227 133.908C240.391 133.908 241.111 132.888 241.111 130.68C241.111 128.46 240.391 127.44 239.227 127.44C238.063 127.44 237.355 128.46 237.355 130.68ZM244.478 135.444C244.37 135.444 244.31 135.384 244.31 135.276V134.844C244.31 134.772 244.334 134.7 244.382 134.64L246.734 131.988C248.402 130.116 248.798 129.468 248.798 128.616C248.798 127.896 248.258 127.44 247.406 127.44C246.674 127.44 246.098 127.872 245.798 128.688C245.762 128.796 245.702 128.832 245.594 128.808L244.262 128.436C244.166 128.412 244.106 128.352 244.154 128.232C244.646 126.672 245.87 125.724 247.502 125.724C249.362 125.724 250.622 126.816 250.622 128.436C250.622 129.72 250.154 130.716 248.006 132.984L247.25 133.788H250.742C250.838 133.788 250.91 133.86 250.91 133.968V135.276C250.91 135.384 250.838 135.444 250.742 135.444H244.478Z" fill="black"/>
<path d="M118.528 210.872C118.42 210.872 118.36 210.8 118.384 210.68L121.408 199.844C121.432 199.736 121.492 199.7 121.588 199.7H122.92C123.04 199.7 123.1 199.772 123.064 199.892L120.052 210.728C120.028 210.836 119.968 210.872 119.872 210.872H118.528ZM124.388 209.444C124.28 209.444 124.22 209.384 124.22 209.276V202.88C124.22 202.772 124.28 202.712 124.388 202.712H125.612C125.708 202.712 125.792 202.76 125.792 202.88L125.828 203.684C126.308 202.964 127.124 202.58 127.964 202.58C128.972 202.58 129.716 203.024 130.076 203.816C130.568 203 131.456 202.58 132.38 202.58C133.844 202.58 134.744 203.516 134.744 205.064V209.276C134.744 209.384 134.672 209.444 134.576 209.444H133.22C133.112 209.444 133.052 209.384 133.052 209.276V205.748C133.052 204.632 132.632 204.116 131.852 204.116C131.06 204.116 130.328 204.728 130.328 206.012V209.276C130.328 209.384 130.256 209.444 130.16 209.444H128.804C128.696 209.444 128.636 209.384 128.636 209.276V205.748C128.636 204.632 128.216 204.116 127.436 204.116C126.644 204.116 125.9 204.728 125.9 206.012V209.276C125.9 209.384 125.84 209.444 125.732 209.444H124.388ZM139.466 209.576C137.342 209.576 136.058 208.124 136.058 206.084C136.058 204.032 137.342 202.58 139.466 202.58C141.53 202.58 142.718 204.116 142.646 206.432C142.634 206.54 142.574 206.6 142.466 206.6H137.858C138.014 207.524 138.578 208.076 139.478 208.076C140.162 208.076 140.642 207.824 140.954 207.308C141.014 207.224 141.086 207.212 141.182 207.236L142.334 207.632C142.442 207.68 142.478 207.752 142.43 207.86C141.83 209.036 140.714 209.576 139.466 209.576ZM140.846 205.34C140.69 204.548 140.174 204.08 139.454 204.08C138.662 204.08 138.086 204.536 137.882 205.34H140.846ZM144.076 209.444C143.968 209.444 143.908 209.384 143.908 209.276V202.88C143.908 202.772 143.968 202.712 144.076 202.712H145.3C145.396 202.712 145.48 202.76 145.48 202.88L145.516 203.684C145.996 202.964 146.812 202.58 147.652 202.58C148.66 202.58 149.404 203.024 149.764 203.816C150.256 203 151.144 202.58 152.068 202.58C153.532 202.58 154.432 203.516 154.432 205.064V209.276C154.432 209.384 154.36 209.444 154.264 209.444H152.908C152.8 209.444 152.74 209.384 152.74 209.276V205.748C152.74 204.632 152.32 204.116 151.54 204.116C150.748 204.116 150.016 204.728 150.016 206.012V209.276C150.016 209.384 149.944 209.444 149.848 209.444H148.492C148.384 209.444 148.324 209.384 148.324 209.276V205.748C148.324 204.632 147.904 204.116 147.124 204.116C146.332 204.116 145.588 204.728 145.588 206.012V209.276C145.588 209.384 145.528 209.444 145.42 209.444H144.076ZM159.31 209.576C157.15 209.576 155.746 208.124 155.746 206.084C155.746 204.032 157.15 202.58 159.31 202.58C161.47 202.58 162.874 204.032 162.874 206.084C162.874 208.124 161.47 209.576 159.31 209.576ZM157.486 206.084C157.486 207.236 158.23 208.04 159.31 208.04C160.39 208.04 161.134 207.236 161.134 206.084C161.134 204.92 160.39 204.116 159.31 204.116C158.23 204.116 157.486 204.92 157.486 206.084ZM163.622 210.872C163.514 210.872 163.454 210.8 163.478 210.68L166.502 199.844C166.526 199.736 166.586 199.7 166.682 199.7H168.014C168.134 199.7 168.194 199.772 168.158 199.892L165.146 210.728C165.122 210.836 165.062 210.872 164.966 210.872H163.622ZM172.629 209.624C170.313 209.624 168.933 207.776 168.933 204.68C168.933 201.572 170.313 199.724 172.629 199.724C174.957 199.724 176.325 201.572 176.325 204.68C176.325 207.776 174.957 209.624 172.629 209.624ZM170.757 204.68C170.757 206.888 171.465 207.908 172.629 207.908C173.793 207.908 174.513 206.888 174.513 204.68C174.513 202.46 173.793 201.44 172.629 201.44C171.465 201.44 170.757 202.46 170.757 204.68ZM179.776 209.444C179.668 209.444 179.608 209.384 179.608 209.276V202.244L177.868 202.928C177.844 202.94 177.808 202.952 177.784 202.952C177.736 202.952 177.688 202.916 177.64 202.844L177.4 202.376C177.376 202.34 177.376 202.304 177.376 202.28C177.376 202.22 177.4 202.184 177.448 202.136L179.968 199.988C180.04 199.916 180.1 199.904 180.172 199.904H181.192C181.3 199.904 181.36 199.964 181.36 200.072V209.276C181.36 209.384 181.3 209.444 181.192 209.444H179.776Z" fill="black"/>
<path d="M196.528 210.872C196.42 210.872 196.36 210.8 196.384 210.68L199.408 199.844C199.432 199.736 199.492 199.7 199.588 199.7H200.92C201.04 199.7 201.1 199.772 201.064 199.892L198.052 210.728C198.028 210.836 197.968 210.872 197.872 210.872H196.528ZM202.388 209.444C202.28 209.444 202.22 209.384 202.22 209.276V202.88C202.22 202.772 202.28 202.712 202.388 202.712H203.612C203.708 202.712 203.792 202.76 203.792 202.88L203.828 203.684C204.308 202.964 205.124 202.58 205.964 202.58C206.972 202.58 207.716 203.024 208.076 203.816C208.568 203 209.456 202.58 210.38 202.58C211.844 202.58 212.744 203.516 212.744 205.064V209.276C212.744 209.384 212.672 209.444 212.576 209.444H211.22C211.112 209.444 211.052 209.384 211.052 209.276V205.748C211.052 204.632 210.632 204.116 209.852 204.116C209.06 204.116 208.328 204.728 208.328 206.012V209.276C208.328 209.384 208.256 209.444 208.16 209.444H206.804C206.696 209.444 206.636 209.384 206.636 209.276V205.748C206.636 204.632 206.216 204.116 205.436 204.116C204.644 204.116 203.9 204.728 203.9 206.012V209.276C203.9 209.384 203.84 209.444 203.732 209.444H202.388ZM217.466 209.576C215.342 209.576 214.058 208.124 214.058 206.084C214.058 204.032 215.342 202.58 217.466 202.58C219.53 202.58 220.718 204.116 220.646 206.432C220.634 206.54 220.574 206.6 220.466 206.6H215.858C216.014 207.524 216.578 208.076 217.478 208.076C218.162 208.076 218.642 207.824 218.954 207.308C219.014 207.224 219.086 207.212 219.182 207.236L220.334 207.632C220.442 207.68 220.478 207.752 220.43 207.86C219.83 209.036 218.714 209.576 217.466 209.576ZM218.846 205.34C218.69 204.548 218.174 204.08 217.454 204.08C216.662 204.08 216.086 204.536 215.882 205.34H218.846ZM222.076 209.444C221.968 209.444 221.908 209.384 221.908 209.276V202.88C221.908 202.772 221.968 202.712 222.076 202.712H223.3C223.396 202.712 223.48 202.76 223.48 202.88L223.516 203.684C223.996 202.964 224.812 202.58 225.652 202.58C226.66 202.58 227.404 203.024 227.764 203.816C228.256 203 229.144 202.58 230.068 202.58C231.532 202.58 232.432 203.516 232.432 205.064V209.276C232.432 209.384 232.36 209.444 232.264 209.444H230.908C230.8 209.444 230.74 209.384 230.74 209.276V205.748C230.74 204.632 230.32 204.116 229.54 204.116C228.748 204.116 228.016 204.728 228.016 206.012V209.276C228.016 209.384 227.944 209.444 227.848 209.444H226.492C226.384 209.444 226.324 209.384 226.324 209.276V205.748C226.324 204.632 225.904 204.116 225.124 204.116C224.332 204.116 223.588 204.728 223.588 206.012V209.276C223.588 209.384 223.528 209.444 223.42 209.444H222.076ZM237.31 209.576C235.15 209.576 233.746 208.124 233.746 206.084C233.746 204.032 235.15 202.58 237.31 202.58C239.47 202.58 240.874 204.032 240.874 206.084C240.874 208.124 239.47 209.576 237.31 209.576ZM235.486 206.084C235.486 207.236 236.23 208.04 237.31 208.04C238.39 208.04 239.134 207.236 239.134 206.084C239.134 204.92 238.39 204.116 237.31 204.116C236.23 204.116 235.486 204.92 235.486 206.084ZM241.622 210.872C241.514 210.872 241.454 210.8 241.478 210.68L244.502 199.844C244.526 199.736 244.586 199.7 244.682 199.7H246.014C246.134 199.7 246.194 199.772 246.158 199.892L243.146 210.728C243.122 210.836 243.062 210.872 242.966 210.872H241.622ZM250.629 209.624C248.313 209.624 246.933 207.776 246.933 204.68C246.933 201.572 248.313 199.724 250.629 199.724C252.957 199.724 254.325 201.572 254.325 204.68C254.325 207.776 252.957 209.624 250.629 209.624ZM248.757 204.68C248.757 206.888 249.465 207.908 250.629 207.908C251.793 207.908 252.513 206.888 252.513 204.68C252.513 202.46 251.793 201.44 250.629 201.44C249.465 201.44 248.757 202.46 248.757 204.68ZM255.88 209.444C255.772 209.444 255.712 209.384 255.712 209.276V208.844C255.712 208.772 255.736 208.7 255.784 208.64L258.136 205.988C259.804 204.116 260.2 203.468 260.2 202.616C260.2 201.896 259.66 201.44 258.808 201.44C258.076 201.44 257.5 201.872 257.2 202.688C257.164 202.796 257.104 202.832 256.996 202.808L255.664 202.436C255.568 202.412 255.508 202.352 255.556 202.232C256.048 200.672 257.272 199.724 258.904 199.724C260.764 199.724 262.024 200.816 262.024 202.436C262.024 203.72 261.556 204.716 259.408 206.984L258.652 207.788H262.144C262.24 207.788 262.312 207.86 262.312 207.968V209.276C262.312 209.384 262.24 209.444 262.144 209.444H255.88Z" fill="black"/>
<path d="M196.528 284.872C196.42 284.872 196.36 284.8 196.384 284.68L199.408 273.844C199.432 273.736 199.492 273.7 199.588 273.7H200.92C201.04 273.7 201.1 273.772 201.064 273.892L198.052 284.728C198.028 284.836 197.968 284.872 197.872 284.872H196.528ZM202.388 283.444C202.28 283.444 202.22 283.384 202.22 283.276V276.88C202.22 276.772 202.28 276.712 202.388 276.712H203.612C203.708 276.712 203.792 276.76 203.792 276.88L203.828 277.684C204.308 276.964 205.124 276.58 205.964 276.58C206.972 276.58 207.716 277.024 208.076 277.816C208.568 277 209.456 276.58 210.38 276.58C211.844 276.58 212.744 277.516 212.744 279.064V283.276C212.744 283.384 212.672 283.444 212.576 283.444H211.22C211.112 283.444 211.052 283.384 211.052 283.276V279.748C211.052 278.632 210.632 278.116 209.852 278.116C209.06 278.116 208.328 278.728 208.328 280.012V283.276C208.328 283.384 208.256 283.444 208.16 283.444H206.804C206.696 283.444 206.636 283.384 206.636 283.276V279.748C206.636 278.632 206.216 278.116 205.436 278.116C204.644 278.116 203.9 278.728 203.9 280.012V283.276C203.9 283.384 203.84 283.444 203.732 283.444H202.388ZM217.466 283.576C215.342 283.576 214.058 282.124 214.058 280.084C214.058 278.032 215.342 276.58 217.466 276.58C219.53 276.58 220.718 278.116 220.646 280.432C220.634 280.54 220.574 280.6 220.466 280.6H215.858C216.014 281.524 216.578 282.076 217.478 282.076C218.162 282.076 218.642 281.824 218.954 281.308C219.014 281.224 219.086 281.212 219.182 281.236L220.334 281.632C220.442 281.68 220.478 281.752 220.43 281.86C219.83 283.036 218.714 283.576 217.466 283.576ZM218.846 279.34C218.69 278.548 218.174 278.08 217.454 278.08C216.662 278.08 216.086 278.536 215.882 279.34H218.846ZM222.076 283.444C221.968 283.444 221.908 283.384 221.908 283.276V276.88C221.908 276.772 221.968 276.712 222.076 276.712H223.3C223.396 276.712 223.48 276.76 223.48 276.88L223.516 277.684C223.996 276.964 224.812 276.58 225.652 276.58C226.66 276.58 227.404 277.024 227.764 277.816C228.256 277 229.144 276.58 230.068 276.58C231.532 276.58 232.432 277.516 232.432 279.064V283.276C232.432 283.384 232.36 283.444 232.264 283.444H230.908C230.8 283.444 230.74 283.384 230.74 283.276V279.748C230.74 278.632 230.32 278.116 229.54 278.116C228.748 278.116 228.016 278.728 228.016 280.012V283.276C228.016 283.384 227.944 283.444 227.848 283.444H226.492C226.384 283.444 226.324 283.384 226.324 283.276V279.748C226.324 278.632 225.904 278.116 225.124 278.116C224.332 278.116 223.588 278.728 223.588 280.012V283.276C223.588 283.384 223.528 283.444 223.42 283.444H222.076ZM237.31 283.576C235.15 283.576 233.746 282.124 233.746 280.084C233.746 278.032 235.15 276.58 237.31 276.58C239.47 276.58 240.874 278.032 240.874 280.084C240.874 282.124 239.47 283.576 237.31 283.576ZM235.486 280.084C235.486 281.236 236.23 282.04 237.31 282.04C238.39 282.04 239.134 281.236 239.134 280.084C239.134 278.92 238.39 278.116 237.31 278.116C236.23 278.116 235.486 278.92 235.486 280.084ZM241.622 284.872C241.514 284.872 241.454 284.8 241.478 284.68L244.502 273.844C244.526 273.736 244.586 273.7 244.682 273.7H246.014C246.134 273.7 246.194 273.772 246.158 273.892L243.146 284.728C243.122 284.836 243.062 284.872 242.966 284.872H241.622ZM250.629 283.624C248.313 283.624 246.933 281.776 246.933 278.68C246.933 275.572 248.313 273.724 250.629 273.724C252.957 273.724 254.325 275.572 254.325 278.68C254.325 281.776 252.957 283.624 250.629 283.624ZM248.757 278.68C248.757 280.888 249.465 281.908 250.629 281.908C251.793 281.908 252.513 280.888 252.513 278.68C252.513 276.46 251.793 275.44 250.629 275.44C249.465 275.44 248.757 276.46 248.757 278.68ZM258.904 283.624C257.2 283.624 255.964 282.664 255.508 281.104V281.056C255.508 280.972 255.556 280.924 255.64 280.9L256.96 280.54L257.008 280.528C257.08 280.528 257.14 280.576 257.164 280.66C257.44 281.404 257.98 281.908 258.904 281.908C259.9 281.908 260.548 281.368 260.548 280.528C260.548 279.7 259.852 279.244 258.796 279.244H258.4C258.292 279.244 258.232 279.184 258.232 279.076V277.924C258.232 277.816 258.292 277.756 258.4 277.756H258.796C259.684 277.756 260.296 277.3 260.296 276.64C260.296 275.944 259.696 275.44 258.868 275.44C258.052 275.44 257.512 275.944 257.236 276.688C257.2 276.796 257.14 276.832 257.032 276.808L255.724 276.448C255.616 276.424 255.568 276.364 255.592 276.244C256.048 274.684 257.272 273.724 258.904 273.724C260.752 273.724 262.12 274.816 262.12 276.304C262.12 277.24 261.556 278.02 260.62 278.452C261.7 278.812 262.36 279.628 262.36 280.78C262.36 282.484 260.956 283.624 258.904 283.624Z" fill="black"/>
<rect x="41" y="70" width="49" height="45" rx="6" fill="#D9D9D9" stroke="black" stroke-width="2"/>
<rect x="119" y="70" width="49" height="45" rx="6" fill="#FFA7B7" stroke="black" stroke-width="2"/>
<rect x="119" y="144" width="49" height="45" rx="6" fill="#91FDDC" stroke="black" stroke-width="2"/>
<rect x="361" y="127" width="49" height="45" rx="6" fill="#91FDDC" stroke="black" stroke-width="2"/>
<rect x="197" y="144" width="49" height="45" rx="6" fill="#91FDDC" stroke="black" stroke-width="2"/>
<rect x="371" y="99" width="49" height="45" rx="6" fill="#91FDDC" stroke="black" stroke-width="2"/>
<rect x="119" y="218" width="49" height="45" rx="6" fill="#F5E9A9" stroke="black" stroke-width="2"/>
<rect x="197" y="218" width="49" height="45" rx="6" fill="#F5E9A9" stroke="black" stroke-width="2"/>
<rect x="197" y="292" width="49" height="45" rx="6" fill="#F5E9A9" stroke="black" stroke-width="2"/>
<rect x="488" y="274" width="49" height="45" rx="6" fill="#F5E9A9" stroke="black" stroke-width="2"/>
<rect x="496" y="252" width="49" height="45" rx="6" fill="#F5E9A9" stroke="black" stroke-width="2"/>
<rect x="504" y="230" width="49" height="45" rx="6" fill="#F5E9A9" stroke="black" stroke-width="2"/>
<rect x="512" y="208" width="49" height="45" rx="6" fill="#91FDDC" stroke="black" stroke-width="2"/>
<path d="M16.056 26.444C15.948 26.444 15.888 26.384 15.888 26.276V16.868C15.888 16.76 15.948 16.7 16.056 16.7H17.4C17.508 16.7 17.568 16.76 17.568 16.868V20.54C18.084 19.892 18.876 19.58 19.692 19.58C21.252 19.58 22.152 20.516 22.152 22.064V26.276C22.152 26.384 22.08 26.444 21.984 26.444H20.628C20.52 26.444 20.46 26.384 20.46 26.276V22.748C20.46 21.632 20.052 21.116 19.176 21.116C18.348 21.116 17.568 21.728 17.568 23.012V26.276C17.568 26.384 17.508 26.444 17.4 26.444H16.056ZM26.4845 26.576C25.0325 26.576 24.2285 25.664 24.2285 23.84V21.224H23.2445C23.1365 21.224 23.0765 21.152 23.0765 21.056V19.88C23.0765 19.772 23.1365 19.712 23.2445 19.712H24.2285V17.9C24.2285 17.804 24.2885 17.732 24.3965 17.732H25.7525C25.8485 17.732 25.9205 17.804 25.9205 17.9V19.712H27.5165C27.6245 19.712 27.6845 19.772 27.6845 19.88V21.056C27.6845 21.152 27.6245 21.224 27.5165 21.224H25.9205V23.948C25.9205 24.68 26.1485 25.04 26.6765 25.04C26.8925 25.04 27.0485 24.944 27.1805 24.716C27.2285 24.62 27.3125 24.584 27.4085 24.632L28.4285 25.088C28.4885 25.124 28.5245 25.172 28.5245 25.232C28.5245 25.268 28.5125 25.316 28.4765 25.364C27.9965 26.252 27.2525 26.576 26.4845 26.576ZM31.5353 26.576C30.0833 26.576 29.2793 25.664 29.2793 23.84V21.224H28.2953C28.1873 21.224 28.1273 21.152 28.1273 21.056V19.88C28.1273 19.772 28.1873 19.712 28.2953 19.712H29.2793V17.9C29.2793 17.804 29.3393 17.732 29.4473 17.732H30.8033C30.8993 17.732 30.9713 17.804 30.9713 17.9V19.712H32.5673C32.6753 19.712 32.7353 19.772 32.7353 19.88V21.056C32.7353 21.152 32.6753 21.224 32.5673 21.224H30.9713V23.948C30.9713 24.68 31.1992 25.04 31.7273 25.04C31.9433 25.04 32.0993 24.944 32.2313 24.716C32.2793 24.62 32.3633 24.584 32.4593 24.632L33.4793 25.088C33.5393 25.124 33.5753 25.172 33.5753 25.232C33.5753 25.268 33.5633 25.316 33.5273 25.364C33.0473 26.252 32.3033 26.576 31.5353 26.576ZM34.6537 29.276C34.5457 29.276 34.4857 29.216 34.4857 29.108V19.88C34.4857 19.772 34.5457 19.712 34.6537 19.712H35.8777C35.9737 19.712 36.0577 19.76 36.0577 19.88L36.0937 20.636C36.5737 19.976 37.3537 19.58 38.2897 19.58C40.2097 19.58 41.4337 21.008 41.4337 23.084C41.4337 25.148 40.2097 26.576 38.2897 26.576C37.4017 26.576 36.6697 26.228 36.1657 25.628V29.108C36.1657 29.216 36.1057 29.276 35.9977 29.276H34.6537ZM36.0577 23.084C36.0577 24.236 36.7897 25.04 37.8697 25.04C38.9497 25.04 39.6937 24.236 39.6937 23.084C39.6937 21.92 38.9497 21.116 37.8697 21.116C36.7897 21.116 36.0577 21.92 36.0577 23.084ZM45.2297 26.576C43.7657 26.576 42.7337 25.952 42.3017 24.776C42.2897 24.752 42.2897 24.74 42.2897 24.716C42.2897 24.644 42.3377 24.596 42.4217 24.572L43.6097 24.248L43.6577 24.236C43.7297 24.236 43.7897 24.284 43.8137 24.356C44.1257 24.896 44.5937 25.076 45.1697 25.076C45.7337 25.076 46.1537 24.968 46.1537 24.584C46.1537 24.296 45.8657 24.14 45.1577 23.936L44.8337 23.84C43.2137 23.384 42.5897 22.592 42.5897 21.56C42.5897 20.408 43.6337 19.58 45.1577 19.58C46.4537 19.58 47.3777 20.132 47.7857 21.272C47.7977 21.296 47.8097 21.332 47.8097 21.356C47.8097 21.416 47.7617 21.464 47.6897 21.476L46.5017 21.86C46.4777 21.872 46.4537 21.872 46.4297 21.872C46.3697 21.872 46.3217 21.836 46.2857 21.764C46.0457 21.344 45.6977 21.08 45.1217 21.08C44.6897 21.08 44.3297 21.212 44.3297 21.56C44.3297 21.872 44.6297 22.052 45.3737 22.232L45.6857 22.316C47.3417 22.724 47.8937 23.432 47.8937 24.548C47.8937 25.784 46.7777 26.576 45.2297 26.576ZM50.045 21.74C49.445 21.74 48.989 21.308 48.989 20.708C48.989 20.12 49.445 19.688 50.045 19.688C50.645 19.688 51.101 20.12 51.101 20.708C51.101 21.308 50.645 21.74 50.045 21.74ZM48.989 25.544C48.989 24.944 49.445 24.524 50.045 24.524C50.645 24.524 51.101 24.944 51.101 25.544C51.101 26.144 50.645 26.576 50.045 26.576C49.445 26.576 48.989 26.144 48.989 25.544ZM52.3249 27.872C52.2169 27.872 52.1569 27.8 52.1809 27.68L55.2049 16.844C55.2289 16.736 55.2889 16.7 55.3849 16.7H56.7169C56.8369 16.7 56.8969 16.772 56.8609 16.892L53.8489 27.728C53.8249 27.836 53.7649 27.872 53.6689 27.872H52.3249ZM57.7858 27.872C57.6778 27.872 57.6178 27.8 57.6418 27.68L60.6658 16.844C60.6898 16.736 60.7498 16.7 60.8458 16.7H62.1778C62.2978 16.7 62.3578 16.772 62.3218 16.892L59.3098 27.728C59.2858 27.836 59.2258 27.872 59.1298 27.872H57.7858ZM65.9742 26.576C63.8502 26.576 62.5662 25.124 62.5662 23.084C62.5662 21.032 63.8502 19.58 65.9742 19.58C68.0382 19.58 69.2262 21.116 69.1542 23.432C69.1422 23.54 69.0822 23.6 68.9742 23.6H64.3662C64.5222 24.524 65.0862 25.076 65.9862 25.076C66.6702 25.076 67.1502 24.824 67.4622 24.308C67.5222 24.224 67.5942 24.212 67.6902 24.236L68.8422 24.632C68.9502 24.68 68.9862 24.752 68.9382 24.86C68.3382 26.036 67.2222 26.576 65.9742 26.576ZM67.3542 22.34C67.1982 21.548 66.6822 21.08 65.9622 21.08C65.1702 21.08 64.5942 21.536 64.3902 22.34H67.3542ZM69.7138 26.444C69.6178 26.444 69.5698 26.396 69.5698 26.336C69.5698 26.312 69.5818 26.276 69.6058 26.24L71.8858 22.988L69.7378 19.916C69.7138 19.88 69.7018 19.844 69.7018 19.82C69.7018 19.76 69.7498 19.712 69.8458 19.712H71.3938C71.4778 19.712 71.5498 19.748 71.5978 19.82L72.9538 21.812L74.3098 19.82C74.3698 19.748 74.4298 19.712 74.5258 19.712H75.9658C76.0498 19.712 76.0978 19.748 76.0978 19.808C76.0978 19.844 76.0858 19.88 76.0618 19.916L73.9258 22.988L76.1938 26.24C76.2178 26.276 76.2298 26.312 76.2298 26.336C76.2298 26.396 76.1818 26.444 76.0978 26.444H74.5498C74.4538 26.444 74.3938 26.408 74.3338 26.336L72.8578 24.14L71.3578 26.336C71.3098 26.408 71.2498 26.444 71.1538 26.444H69.7138ZM79.9251 26.576C78.0051 26.576 76.7811 25.148 76.7811 23.084C76.7811 21.008 78.0051 19.58 79.9251 19.58C80.8611 19.58 81.6411 19.976 82.1211 20.636L82.1691 19.88C82.1691 19.76 82.2411 19.712 82.3491 19.712H83.5611C83.6691 19.712 83.7411 19.772 83.7411 19.88V26.276C83.7411 26.384 83.6691 26.444 83.5611 26.444H82.3491C82.2411 26.444 82.1691 26.396 82.1691 26.276L82.1211 25.52C81.6411 26.18 80.8611 26.576 79.9251 26.576ZM78.5211 23.084C78.5211 24.236 79.2651 25.04 80.3451 25.04C81.4251 25.04 82.1691 24.236 82.1691 23.084C82.1691 21.92 81.4251 21.116 80.3451 21.116C79.2651 21.116 78.5211 21.92 78.5211 23.084ZM85.6771 26.444C85.5691 26.444 85.5091 26.384 85.5091 26.276V19.88C85.5091 19.772 85.5691 19.712 85.6771 19.712H86.9011C86.9971 19.712 87.0811 19.76 87.0811 19.88L87.1171 20.684C87.5971 19.964 88.4131 19.58 89.2531 19.58C90.2611 19.58 91.0051 20.024 91.3651 20.816C91.8571 20 92.7451 19.58 93.6691 19.58C95.1331 19.58 96.0331 20.516 96.0331 22.064V26.276C96.0331 26.384 95.9611 26.444 95.8651 26.444H94.5091C94.4011 26.444 94.3411 26.384 94.3411 26.276V22.748C94.3411 21.632 93.9211 21.116 93.1411 21.116C92.3491 21.116 91.6171 21.728 91.6171 23.012V26.276C91.6171 26.384 91.5451 26.444 91.4491 26.444H90.0931C89.9851 26.444 89.9251 26.384 89.9251 26.276V22.748C89.9251 21.632 89.5051 21.116 88.7251 21.116C87.9331 21.116 87.1891 21.728 87.1891 23.012V26.276C87.1891 26.384 87.1291 26.444 87.0211 26.444H85.6771ZM97.9115 29.276C97.8035 29.276 97.7435 29.216 97.7435 29.108V19.88C97.7435 19.772 97.8035 19.712 97.9115 19.712H99.1355C99.2315 19.712 99.3155 19.76 99.3155 19.88L99.3515 20.636C99.8315 19.976 100.611 19.58 101.547 19.58C103.467 19.58 104.691 21.008 104.691 23.084C104.691 25.148 103.467 26.576 101.547 26.576C100.659 26.576 99.9275 26.228 99.4235 25.628V29.108C99.4235 29.216 99.3635 29.276 99.2555 29.276H97.9115ZM99.3155 23.084C99.3155 24.236 100.047 25.04 101.127 25.04C102.207 25.04 102.951 24.236 102.951 23.084C102.951 21.92 102.207 21.116 101.127 21.116C100.047 21.116 99.3155 21.92 99.3155 23.084ZM106.244 26.444C106.136 26.444 106.076 26.384 106.076 26.276V16.868C106.076 16.76 106.136 16.7 106.244 16.7H107.588C107.696 16.7 107.756 16.76 107.756 16.868V26.276C107.756 26.384 107.696 26.444 107.588 26.444H106.244ZM112.545 26.576C110.421 26.576 109.137 25.124 109.137 23.084C109.137 21.032 110.421 19.58 112.545 19.58C114.609 19.58 115.797 21.116 115.725 23.432C115.713 23.54 115.653 23.6 115.545 23.6H110.937C111.093 24.524 111.657 25.076 112.557 25.076C113.241 25.076 113.721 24.824 114.033 24.308C114.093 24.224 114.165 24.212 114.261 24.236L115.413 24.632C115.521 24.68 115.557 24.752 115.509 24.86C114.909 26.036 113.793 26.576 112.545 26.576ZM113.925 22.34C113.769 21.548 113.253 21.08 112.533 21.08C111.741 21.08 111.165 21.536 110.961 22.34H113.925ZM117.721 26.576C117.121 26.576 116.665 26.144 116.665 25.544C116.665 24.944 117.121 24.524 117.721 24.524C118.321 24.524 118.777 24.944 118.777 25.544C118.777 26.144 118.321 26.576 117.721 26.576ZM123.292 26.576C121.168 26.576 119.836 25.148 119.836 23.084C119.836 21.008 121.18 19.58 123.28 19.58C124.792 19.58 125.848 20.204 126.34 21.536C126.352 21.56 126.352 21.584 126.352 21.596C126.352 21.668 126.304 21.728 126.22 21.752L125.104 22.076L125.044 22.088C124.984 22.088 124.924 22.04 124.876 21.968C124.576 21.404 124.084 21.116 123.388 21.116C122.164 21.116 121.576 22.016 121.576 23.084C121.576 24.14 122.164 25.04 123.388 25.04C124.084 25.04 124.612 24.74 124.888 24.14C124.948 24.056 125.02 24.008 125.116 24.044L126.352 24.344C126.448 24.368 126.496 24.44 126.448 24.548C125.92 25.94 124.78 26.576 123.292 26.576ZM130.911 26.576C128.751 26.576 127.347 25.124 127.347 23.084C127.347 21.032 128.751 19.58 130.911 19.58C133.071 19.58 134.475 21.032 134.475 23.084C134.475 25.124 133.071 26.576 130.911 26.576ZM129.087 23.084C129.087 24.236 129.831 25.04 130.911 25.04C131.991 25.04 132.735 24.236 132.735 23.084C132.735 21.92 131.991 21.116 130.911 21.116C129.831 21.116 129.087 21.92 129.087 23.084ZM136.021 26.444C135.913 26.444 135.853 26.384 135.853 26.276V19.88C135.853 19.772 135.913 19.712 136.021 19.712H137.245C137.341 19.712 137.425 19.76 137.425 19.88L137.461 20.684C137.941 19.964 138.757 19.58 139.597 19.58C140.605 19.58 141.349 20.024 141.709 20.816C142.201 20 143.089 19.58 144.013 19.58C145.477 19.58 146.377 20.516 146.377 22.064V26.276C146.377 26.384 146.305 26.444 146.209 26.444H144.853C144.745 26.444 144.685 26.384 144.685 26.276V22.748C144.685 21.632 144.265 21.116 143.485 21.116C142.693 21.116 141.961 21.728 141.961 23.012V26.276C141.961 26.384 141.889 26.444 141.793 26.444H140.437C140.329 26.444 140.269 26.384 140.269 26.276V22.748C140.269 21.632 139.849 21.116 139.069 21.116C138.277 21.116 137.533 21.728 137.533 23.012V26.276C137.533 26.384 137.473 26.444 137.365 26.444H136.021Z" fill="black"/>
<path d="M470.212 179.444C470.104 179.444 470.044 179.384 470.044 179.276V170.072C470.044 169.964 470.104 169.904 470.212 169.904H473.488C475.768 169.904 476.8 170.948 476.8 172.364C476.8 173.3 476.344 174.092 475.48 174.44C476.68 174.764 477.28 175.628 477.28 176.72C477.28 178.388 476.188 179.444 473.608 179.444H470.212ZM473.668 177.812C474.832 177.812 475.456 177.368 475.456 176.564C475.456 175.772 474.832 175.34 473.668 175.34H471.796V177.812H473.668ZM473.416 173.756C474.424 173.756 475 173.372 475 172.652C475 171.932 474.424 171.548 473.416 171.548H471.796V173.756H473.416ZM481.974 179.576C479.814 179.576 478.41 178.124 478.41 176.084C478.41 174.032 479.814 172.58 481.974 172.58C484.134 172.58 485.538 174.032 485.538 176.084C485.538 178.124 484.134 179.576 481.974 179.576ZM480.15 176.084C480.15 177.236 480.894 178.04 481.974 178.04C483.054 178.04 483.798 177.236 483.798 176.084C483.798 174.92 483.054 174.116 481.974 174.116C480.894 174.116 480.15 174.92 480.15 176.084ZM490.083 179.576C487.923 179.576 486.519 178.124 486.519 176.084C486.519 174.032 487.923 172.58 490.083 172.58C492.243 172.58 493.647 174.032 493.647 176.084C493.647 178.124 492.243 179.576 490.083 179.576ZM488.259 176.084C488.259 177.236 489.003 178.04 490.083 178.04C491.163 178.04 491.907 177.236 491.907 176.084C491.907 174.92 491.163 174.116 490.083 174.116C489.003 174.116 488.259 174.92 488.259 176.084ZM495.193 179.444C495.085 179.444 495.025 179.384 495.025 179.276V169.868C495.025 169.76 495.085 169.7 495.193 169.7H496.537C496.645 169.7 496.705 169.76 496.705 169.868V175.34L499.153 172.808C499.213 172.736 499.285 172.712 499.357 172.712H501.097C501.193 172.712 501.253 172.76 501.253 172.82C501.253 172.844 501.229 172.88 501.193 172.916L498.949 175.124L501.457 179.24C501.481 179.276 501.481 179.312 501.481 179.336C501.481 179.396 501.445 179.444 501.349 179.444H499.741C499.645 179.444 499.585 179.408 499.549 179.324L497.725 176.336L496.705 177.32V179.276C496.705 179.384 496.645 179.444 496.537 179.444H495.193ZM507.196 179.444C507.088 179.444 507.028 179.384 507.028 179.276V170.072C507.028 169.964 507.088 169.904 507.196 169.904H510.472C512.752 169.904 513.784 170.948 513.784 172.364C513.784 173.3 513.328 174.092 512.464 174.44C513.664 174.764 514.264 175.628 514.264 176.72C514.264 178.388 513.172 179.444 510.592 179.444H507.196ZM510.652 177.812C511.816 177.812 512.44 177.368 512.44 176.564C512.44 175.772 511.816 175.34 510.652 175.34H508.78V177.812H510.652ZM510.4 173.756C511.408 173.756 511.984 173.372 511.984 172.652C511.984 171.932 511.408 171.548 510.4 171.548H508.78V173.756H510.4Z" fill="black"/>
<path d="M334.212 50.444C334.104 50.444 334.044 50.384 334.044 50.276V41.072C334.044 40.964 334.104 40.904 334.212 40.904H337.488C339.768 40.904 340.8 41.948 340.8 43.364C340.8 44.3 340.344 45.092 339.48 45.44C340.68 45.764 341.28 46.628 341.28 47.72C341.28 49.388 340.188 50.444 337.608 50.444H334.212ZM337.668 48.812C338.832 48.812 339.456 48.368 339.456 47.564C339.456 46.772 338.832 46.34 337.668 46.34H335.796V48.812H337.668ZM337.416 44.756C338.424 44.756 339 44.372 339 43.652C339 42.932 338.424 42.548 337.416 42.548H335.796V44.756H337.416ZM345.974 50.576C343.814 50.576 342.41 49.124 342.41 47.084C342.41 45.032 343.814 43.58 345.974 43.58C348.134 43.58 349.538 45.032 349.538 47.084C349.538 49.124 348.134 50.576 345.974 50.576ZM344.15 47.084C344.15 48.236 344.894 49.04 345.974 49.04C347.054 49.04 347.798 48.236 347.798 47.084C347.798 45.92 347.054 45.116 345.974 45.116C344.894 45.116 344.15 45.92 344.15 47.084ZM354.083 50.576C351.923 50.576 350.519 49.124 350.519 47.084C350.519 45.032 351.923 43.58 354.083 43.58C356.243 43.58 357.647 45.032 357.647 47.084C357.647 49.124 356.243 50.576 354.083 50.576ZM352.259 47.084C352.259 48.236 353.003 49.04 354.083 49.04C355.163 49.04 355.907 48.236 355.907 47.084C355.907 45.92 355.163 45.116 354.083 45.116C353.003 45.116 352.259 45.92 352.259 47.084ZM359.193 50.444C359.085 50.444 359.025 50.384 359.025 50.276V40.868C359.025 40.76 359.085 40.7 359.193 40.7H360.537C360.645 40.7 360.705 40.76 360.705 40.868V46.34L363.153 43.808C363.213 43.736 363.285 43.712 363.357 43.712H365.097C365.193 43.712 365.253 43.76 365.253 43.82C365.253 43.844 365.229 43.88 365.193 43.916L362.949 46.124L365.457 50.24C365.481 50.276 365.481 50.312 365.481 50.336C365.481 50.396 365.445 50.444 365.349 50.444H363.741C363.645 50.444 363.585 50.408 363.549 50.324L361.725 47.336L360.705 48.32V50.276C360.705 50.384 360.645 50.444 360.537 50.444H359.193ZM370.404 50.444C370.284 50.444 370.212 50.372 370.272 50.252L374.076 41.036C374.112 40.94 374.184 40.904 374.268 40.904H375.48C375.576 40.904 375.636 40.94 375.672 41.036L379.488 50.252C379.5 50.276 379.5 50.3 379.5 50.324C379.5 50.396 379.452 50.444 379.356 50.444H377.712C377.628 50.444 377.556 50.408 377.52 50.312L376.848 48.536H372.888L372.204 50.312C372.168 50.408 372.108 50.444 372.012 50.444H370.404ZM373.488 46.904H376.224L374.856 43.292L373.488 46.904Z" fill="black"/>
<path d="M370 109.769L360.343 103.438L359.689 114.967L370 109.769ZM169 161C197.748 161 217.638 157.538 232.945 152.388C248.254 147.238 258.927 140.413 269.211 133.787C279.495 127.16 289.37 120.746 303.194 116.245C317.014 111.744 334.838 109.14 360.98 110.259L361.066 108.26C334.751 107.134 316.677 109.751 302.575 114.343C288.475 118.934 278.402 125.486 268.128 132.106C257.854 138.726 247.36 145.428 232.307 150.493C217.252 155.558 197.586 159 169 159L169 161Z" fill="#9696FF"/>
<path d="M511 221.171L501.296 227.429L500.728 215.896L511 221.171ZM247 166C284.972 166 311.138 169.779 331.238 175.379C351.342 180.98 365.335 188.391 378.921 195.58C392.501 202.765 405.663 209.72 424.215 214.539C442.771 219.358 466.766 222.05 501.972 220.614L502.053 222.613C466.711 224.053 442.509 221.356 423.713 216.474C404.913 211.592 391.57 204.535 377.986 197.347C364.409 190.164 350.581 182.843 330.702 177.305C310.818 171.766 284.84 168 247 168L247 166Z" fill="#9696FF"/>
<path d="M503 242.834L493.059 248.708L492.942 237.162L503 242.834ZM247 231C320.503 231 348.168 234.016 374.524 236.893C400.813 239.762 425.792 242.49 493.99 241.925L494.007 243.925C425.722 244.491 400.664 241.757 374.307 238.881C348.015 236.012 320.423 233 247 233L247 231Z" fill="#9696FF"/>
<path d="M495 263.804L485.057 269.675L484.944 258.128L495 263.804ZM169 250C263.026 250 298.134 253.598 331.827 257.01C365.459 260.416 397.677 263.637 485.988 262.892L486.005 264.892C397.614 265.637 365.323 262.412 331.626 259C297.991 255.593 262.951 252 169 252L169 250Z" fill="#9696FF"/>
<path d="M487 288.422L477.16 282.38L476.847 293.923L487 288.422ZM247 317C315.878 317 341.901 309.333 366.625 302.007C391.188 294.729 414.447 287.793 477.966 289.178L478.01 287.178C414.251 285.788 390.784 292.763 366.057 300.09C341.49 307.369 315.659 315 247 315L247 317Z" fill="#9696FF"/>
<path d="M360 152.226L350.14 146.217L349.866 157.761L360 152.226ZM247 168C278.61 168 291.128 164.103 302.554 160.26C308.229 158.351 313.561 156.485 320.86 155.119C328.159 153.753 337.451 152.883 350.994 153.013L351.013 151.013C337.375 150.883 327.949 151.757 320.492 153.153C313.035 154.548 307.574 156.461 301.916 158.364C290.677 162.144 278.374 166 247 166L247 168Z" fill="#9696FF"/>
</svg>
